<?xml version="1.0" encoding="UTF-8"?>
<!DOCTYPE svg PUBLIC "-//W3C//DTD SVG 1.1//EN" "http://www.w3.org/Graphics/SVG/1.1/DTD/svg11.dtd">
<!-- Creator: CorelDRAW X7 -->
<svg xmlns="http://www.w3.org/2000/svg" xml:space="preserve" width="564px" height="303px" version="1.1" style="shape-rendering:geometricPrecision; text-rendering:geometricPrecision; image-rendering:optimizeQuality; fill-rule:evenodd; clip-rule:evenodd"
viewBox="0 0 1196 643"
 xmlns:xlink="http://www.w3.org/1999/xlink">
 <defs>
  <style type="text/css">
   <![CDATA[
    .fil0 {fill:#FEFEFE}
    .fil1 {fill:#E6D94D}
    .fil2 {fill:#A2B747}
    .fil3 {fill:#5B5F61}
    .fil4 {fill:#45C2CD}
   ]]>
  </style>
 </defs>
 <g id="Layer_x0020_1">
  <metadata id="CorelCorpID_0Corel-Layer"/>
  <polygon class="fil0" points="1196,642 2,643 0,1 1194,0 "/>
  <path class="fil1" d="M899 575c-12,1 -25,1 -37,-1 5,-4 10,-8 17,-12 4,-2 2,-6 -4,-5 -16,4 -32,8 -48,12 -13,3 -26,6 -40,8 6,-6 11,-11 18,-16 4,-2 1,-7 -6,-6 -30,6 -58,16 -89,20 12,-6 26,-12 39,-18 7,-3 1,-9 -7,-7 -42,10 -84,23 -129,30 18,-7 37,-13 56,-19 9,-3 4,-11 -6,-9 -33,8 -65,17 -98,24 13,-5 26,-9 39,-12 8,-3 2,-11 -7,-9 -40,10 -80,22 -123,29 27,-11 59,-21 92,-25 9,-1 6,-9 -3,-8 -36,3 -69,11 -103,19 17,-7 34,-13 52,-18 8,-3 0,-9 -7,-7 -19,5 -37,12 -56,17 -15,5 -31,9 -48,11 3,-3 6,-5 10,-7 4,-2 -2,-7 -8,-5 -12,4 -24,9 -37,11 0,0 0,0 1,0 2,-2 -1,-5 -5,-6 -4,-1 -7,1 -7,3 -1,0 -2,1 -2,1 -6,2 -11,4 -17,6 -4,1 -1,5 4,5 16,0 31,-2 44,-6 -1,2 0,5 5,6 10,0 20,-1 29,-3 -1,1 -2,1 -3,2 -7,3 0,8 7,7 14,-3 27,-5 41,-8 -8,3 -15,7 -22,10 -5,3 -3,9 5,8 21,-2 41,-5 60,-9 0,3 5,5 10,5 23,-2 44,-6 65,-11 -3,1 -6,2 -9,4 -6,2 -2,8 6,8 42,-4 81,-14 120,-23 -6,2 -11,5 -15,8 -5,3 2,7 7,7 34,-2 62,-11 92,-19 -4,4 -8,8 -13,12 -3,2 0,6 5,6 31,0 56,-10 83,-17 -3,2 -6,4 -8,7 -2,1 -1,4 2,4 16,3 33,3 49,1 5,-1 5,-6 -1,-5z"/>
  <path class="fil2" d="M461 406c3,-2 7,-5 11,-7 -4,3 -8,5 -11,7zm42 17c2,-3 5,-6 7,-9 0,-1 0,-1 1,-2 0,-1 0,-1 0,-1 0,-2 0,-3 0,-4 -1,-2 -3,-4 -6,-2 1,-1 1,-2 2,-2 3,-3 1,-8 -3,-9 -4,0 -7,0 -11,0 3,-2 6,-6 8,-9 3,-3 0,-9 -5,-8 0,1 -1,1 -2,1 2,-3 4,-6 4,-10 1,-4 -2,-7 -5,-6 1,-1 2,-3 3,-4 4,-3 1,-9 -4,-8 -1,0 -2,0 -3,0 1,-3 1,-6 1,-9 -1,-3 -3,-5 -5,-4 -1,0 -2,1 -3,1 1,-2 0,-6 -2,-6 -7,-1 -13,0 -19,2 1,-2 -1,-4 -3,-4 -12,-4 -24,0 -34,6 -4,2 -1,8 2,6 8,-4 16,-6 24,-6 -8,6 -17,10 -25,16 -4,2 0,7 4,6 8,-3 15,-7 23,-11 5,-2 10,-5 16,-7 -12,10 -27,16 -39,25 -4,3 -1,10 4,7 0,0 0,0 1,0l0 0c0,0 0,0 0,0 15,-9 31,-19 47,-25 0,2 -2,4 -3,6 -18,7 -33,21 -49,30 -1,1 -2,1 -3,2 -5,3 -1,12 4,9 2,-1 4,-3 6,-4 -3,3 -7,6 -10,9 -5,4 0,12 6,9 13,-8 27,-17 40,-27 3,-2 7,-4 11,-5 -5,6 -12,10 -19,15 -10,7 -22,13 -30,22 -4,4 0,10 4,9 -3,5 3,11 8,8 9,-4 18,-10 26,-15 5,-3 10,-6 15,-8 -8,8 -18,14 -28,20 -5,4 0,12 5,10 9,-4 17,-8 25,-12 -1,1 -2,3 -3,5 -4,5 3,9 7,7 3,-2 7,-4 10,-6 3,-2 2,-6 0,-8z"/>
  <path class="fil3" d="M519 444c-1,-1 -1,-2 -2,-3 -2,1 -5,1 -7,0 -1,0 -2,0 -3,-1 -14,-1 -29,0 -44,0 -17,0 -34,-1 -50,-4 0,-6 -1,-11 -1,-16 0,-10 1,-19 2,-28 2,-21 5,-42 5,-63 0,-5 -7,-5 -8,-1 -1,20 -4,40 -6,59 -2,10 -3,19 -4,29 0,4 0,9 0,13 0,5 -1,11 1,15 1,2 4,4 6,3 17,5 35,6 52,6 9,0 17,-1 26,-1 10,-1 20,-1 30,-3 2,-1 3,-3 2,-5 1,0 1,0 1,0z"/>
  <path class="fil3" d="M510 359l6 0c1,0 1,0 1,0 -3,-13 -6,-26 -10,-39 -2,-3 -8,-2 -7,2 2,12 5,25 7,37 1,0 2,0 3,0z"/>
  <path class="fil3" d="M505 329c17,-1 34,-2 51,-10 8,-3 15,-9 22,-16 5,-5 9,-11 14,-16 4,-5 9,-8 11,-15 2,-6 -3,-9 -7,-9 -10,1 -19,20 -26,28 -5,7 -12,13 -19,18 -14,8 -31,9 -46,12 -4,1 -4,8 0,8z"/>
  <path class="fil3" d="M303 318c2,-1 4,-1 7,0 2,1 3,2 4,3 1,1 2,2 3,3 0,0 1,0 1,0 1,0 2,1 4,2 1,1 3,2 5,3 4,3 8,5 13,8 6,3 12,6 20,7 9,2 17,-1 25,-3 10,-4 20,-9 31,-14 3,-1 7,3 4,5 -9,7 -17,14 -28,18 -9,4 -18,6 -29,6 -21,0 -47,-14 -62,-26 -5,-4 -4,-10 2,-12z"/>
  <path class="fil3" d="M370 533c7,0 16,0 21,-6 2,-3 4,-7 5,-10 4,-11 5,-22 6,-33 0,-11 0,-23 2,-35 0,-4 1,-11 2,-15 3,-5 8,-3 7,2 -1,8 -1,17 -1,25 0,9 0,18 -1,27 -1,16 -2,36 -12,49 -7,11 -19,13 -29,14 -10,2 -9,-17 0,-18z"/>
  <path class="fil3" d="M553 530c-6,-2 -10,3 -16,2 -3,-1 -5,-3 -7,-6 -5,-7 -6,-18 -8,-27 -2,-18 -1,-37 -3,-55 0,-1 -1,-2 -2,-3 -2,0 -3,0 -5,0 0,1 0,1 0,2 1,10 0,20 0,30 0,12 0,24 2,36 1,10 4,21 10,29 3,5 7,8 12,10 6,2 18,2 21,-8 1,-4 0,-9 -4,-10z"/>
  <path class="fil3" d="M557 145c-10,13 -22,24 -36,32 -6,3 -13,6 -20,9 -6,3 -15,5 -21,9 -2,2 -1,6 1,6 14,28 47,37 77,32 -7,22 -16,42 -32,59 -18,18 -42,27 -67,31 -37,6 -74,-7 -100,-35 -24,-27 -36,-64 -32,-100 4,-39 27,-77 63,-95 29,-15 65,-18 97,-10 16,5 31,12 43,22 13,11 21,25 28,40 -1,0 -1,0 -1,0zm-255 24c-4,-5 -9,-8 -13,-13 -2,-2 -5,-5 -5,-8 -1,-2 3,-3 5,-4 7,-3 14,-4 20,-6 9,-3 18,-5 27,-9 -3,6 -7,11 -11,17 -5,8 -13,18 -23,23zm12 -81c-2,-1 -4,-3 -4,-4 0,-4 5,-7 8,-9 5,-4 11,-7 17,-11 5,15 7,30 10,45 -11,-5 -22,-13 -31,-21zm250 58c0,0 0,0 0,0 -8,-44 -52,-70 -94,-75 -16,-3 -32,-2 -48,1 4,-4 8,-9 11,-13 9,-11 15,-23 17,-36 1,-4 -4,-5 -5,-2 -4,13 -11,24 -19,34 -4,4 -7,8 -11,11 6,-11 10,-24 10,-36 0,-4 -6,-4 -6,0 -2,22 -15,39 -30,53 0,0 0,0 0,0 -14,6 -26,15 -36,26 -2,-18 -5,-36 -10,-53 -1,-2 -4,-5 -7,-3 -11,6 -46,19 -35,38 5,7 14,13 21,17 0,0 1,1 1,1 -12,-1 -24,-3 -37,-6 -22,-7 -42,-20 -54,-40 -2,-4 -8,0 -6,3 10,21 29,34 50,42 3,1 6,2 9,3 0,0 0,0 0,0 -18,0 -36,-3 -52,-10 -4,-1 -7,5 -3,7 17,8 36,12 55,13 -15,2 -31,4 -46,4 -5,-1 -5,7 0,7 15,1 31,0 47,-2 8,-1 16,-3 24,-4 2,-1 5,-1 7,-1 -4,1 -9,2 -13,4 -9,2 -19,3 -26,9 -7,5 -6,14 -2,21 5,7 15,12 19,19 1,2 4,4 6,3 8,-2 14,-6 19,-12 -4,16 -5,32 -4,47 4,37 22,72 51,95 31,25 71,30 109,21 25,-5 47,-18 63,-36 18,-20 29,-45 35,-70 1,-7 -9,-12 -12,-6 -27,8 -56,3 -74,-19 6,-2 12,-5 17,-7 8,-3 15,-7 23,-11 7,-4 14,-9 20,-14 6,-5 13,-11 17,-18 1,-1 0,-3 -1,-5z"/>
  <path class="fil3" d="M465 159c-3,-6 -11,-12 -18,-13 -2,0 -5,5 -2,7 5,3 8,8 13,12 4,4 10,-1 7,-6z"/>
  <path class="fil3" d="M501 133c-1,-1 -2,-2 -3,-3 -1,-2 -3,-3 -4,-4 -4,-2 -7,-4 -11,-6 -2,-1 -4,1 -3,3 2,7 7,11 12,16 4,5 13,-1 9,-6z"/>
  <path class="fil2" d="M340 97c-4,-5 -5,-10 -3,-16 0,-2 -1,-4 -3,-4 0,-1 0,-1 1,-1 1,-6 -7,-8 -9,-3 0,1 0,2 -1,3 -1,-1 -2,-2 -4,-1 -2,0 -3,1 -5,2 -3,2 0,6 3,6 0,1 0,2 1,3 0,2 2,4 3,4 0,1 0,1 0,2 0,4 4,6 7,4 0,2 1,4 3,6 4,4 10,-1 7,-5z"/>
  <path class="fil2" d="M323 132c-8,5 -15,9 -20,16 0,-1 -1,-2 -1,-3 -3,-4 -10,-3 -10,2 -1,0 -2,2 -2,3 0,0 0,0 0,1 0,1 1,2 2,3 1,2 2,4 4,6 1,1 3,2 5,1 0,0 0,0 0,0 2,4 7,1 8,-2 2,-11 11,-13 19,-18 6,-3 1,-12 -5,-9z"/>
  <path class="fil4" d="M794 399c-4,-2 -8,-4 -12,-6 4,2 8,4 12,6zm-48 10c2,3 5,6 8,9 -2,2 -3,6 0,8 4,1 7,3 11,5 4,2 10,-3 6,-7 -1,-2 -3,-4 -4,-5 8,3 17,7 25,10 6,1 10,-7 5,-10 -10,-5 -20,-11 -29,-18 5,2 11,5 15,7 9,5 18,10 27,13 5,2 10,-4 7,-8 4,0 8,-6 4,-10 -10,-8 -21,-13 -32,-19 -6,-4 -13,-8 -19,-14 4,2 8,3 12,5 13,9 26,16 40,23 6,3 11,-5 6,-9 -4,-2 -8,-5 -11,-7 2,1 4,2 6,3 5,2 9,-6 3,-9 -1,-1 -1,-1 -2,-1 -17,-9 -32,-21 -50,-27 -2,-2 -3,-4 -4,-6 17,5 32,14 48,22 0,0 0,0 0,0l0 0c1,0 1,0 1,0 4,2 8,-5 4,-7 -13,-8 -28,-13 -40,-22 6,1 11,3 16,6 8,3 15,7 23,9 4,1 7,-4 4,-6 -9,-5 -18,-9 -26,-15 8,0 16,2 23,5 4,2 6,-4 3,-6 -11,-5 -23,-8 -35,-4 -1,1 -3,3 -2,4 -6,-1 -12,-2 -18,0 -3,0 -3,3 -2,6 -1,-1 -2,-1 -3,-1 -2,-1 -4,1 -4,4 -1,3 0,6 1,9 -1,0 -2,0 -3,0 -5,-1 -7,5 -4,8 1,1 2,2 4,3 -4,0 -6,3 -5,7 1,3 3,7 5,9 -1,0 -2,0 -3,0 -4,-1 -7,5 -4,8 3,3 5,6 8,8 -3,0 -7,0 -10,1 -4,0 -5,6 -2,8 0,1 1,1 1,2 -5,-2 -7,5 -4,9z"/>
  <path class="fil3" d="M907 139c-15,-37 -46,-67 -84,-80 -14,-5 -29,-7 -44,-7 0,0 0,0 0,0 -20,-5 -40,-14 -51,-33 -3,-4 -8,-1 -6,3 6,10 15,20 25,28 -4,-2 -9,-4 -14,-6 -12,-5 -24,-12 -33,-21 -2,-3 -7,1 -5,4 9,10 20,18 33,24 5,3 11,5 16,7 -16,4 -31,12 -44,21 -3,3 -7,5 -10,8 1,1 1,1 2,2 2,0 5,2 5,4 24,-19 55,-31 86,-31 40,0 79,23 101,56 20,31 27,70 17,105 -10,38 -37,66 -74,78 -24,9 -50,11 -74,3 -22,-7 -40,-21 -56,-38 29,-9 54,-33 54,-64 2,-2 1,-5 -2,-6 -7,-2 -16,1 -23,2 -8,0 -15,1 -22,0 -17,0 -32,-5 -48,-11 0,0 0,0 0,0 0,-2 0,-4 -1,-6 0,0 -1,0 -1,0 -1,0 -1,-1 -1,-1 -1,2 -3,2 -5,2 1,3 1,6 2,9 0,0 0,0 0,0 0,2 1,4 2,5 7,4 16,6 24,8 8,2 16,3 24,3 9,1 18,0 27,0 5,-1 11,-1 17,-2 -6,28 -29,46 -57,51 -6,-3 -13,6 -8,12 17,20 39,37 63,46 24,9 50,10 75,4 38,-10 71,-33 88,-70 16,-34 16,-74 2,-109z"/>
  <path class="fil3" d="M746 157c0,-7 4,-17 10,-20 2,-2 7,1 5,4 -3,5 -4,12 -6,18 -2,5 -9,3 -9,-2z"/>
  <path class="fil3" d="M701 149c1,-1 1,-2 1,-4 1,-2 2,-3 3,-5 1,-4 4,-7 6,-11 2,-2 5,0 5,2 1,7 -2,13 -3,20 -2,7 -13,5 -12,-2z"/>
  <path class="fil3" d="M729 376c2,-21 6,-41 11,-61 1,-4 8,-3 7,1 -3,21 -6,42 -7,63 0,18 0,37 4,55 1,1 1,2 0,2 16,-2 32,-2 47,-2 18,-1 35,-4 52,-9 -1,-5 0,-11 -1,-16 -1,-9 -2,-19 -4,-28 -3,-21 -7,-42 -9,-63 0,-5 7,-6 8,-1 2,20 7,39 11,59 2,9 3,19 5,28 0,5 1,10 1,14 1,5 2,11 0,15 -1,3 -4,4 -6,4 -17,6 -35,8 -52,9 -9,0 -18,1 -27,1 -10,0 -20,0 -30,-2 -3,0 -4,-3 -3,-5 -2,0 -4,-2 -5,-4 -5,-19 -3,-41 -2,-60z"/>
  <path class="fil3" d="M742 324c-9,14 -17,30 -32,41 -7,6 -16,10 -25,13 -7,2 -14,3 -20,5 -7,2 -13,4 -20,3 -5,-1 -7,-6 -4,-10 5,-9 27,-9 37,-11 9,-1 18,-4 24,-8 15,-10 23,-24 34,-36 2,-3 8,-1 6,3z"/>
  <path class="fil3" d="M943 281c-2,-1 -4,0 -7,1 -1,1 -3,2 -4,3 -1,1 -1,3 -2,4 0,0 -1,0 -1,0 -1,1 -2,2 -3,3 -2,1 -3,3 -5,4 -4,3 -7,6 -11,9 -6,5 -12,9 -19,11 -9,3 -18,2 -26,1 -11,-2 -22,-6 -33,-8 -4,-1 -7,4 -4,5 11,6 20,11 32,14 9,2 19,2 29,1 22,-4 45,-22 58,-37 5,-5 2,-11 -4,-11z"/>
  <path class="fil3" d="M867 538c5,-4 13,-9 14,-17 1,-4 0,-8 -1,-12 -3,-11 -8,-21 -14,-30 -5,-11 -12,-20 -17,-31 -3,-4 -6,-10 -7,-15 -1,-5 5,-6 7,-2 3,8 9,15 13,22 5,8 10,16 15,24 8,14 18,31 17,48 -1,13 -9,21 -17,28 -7,7 -17,-9 -10,-15z"/>
  <path class="fil3" d="M693 535c6,-1 10,4 16,4 3,-1 6,-3 8,-6 5,-7 8,-19 10,-28 4,-20 5,-40 8,-60 1,-6 8,-5 7,1 -1,11 -1,21 -2,32 -1,13 -3,25 -6,38 -2,11 -6,22 -12,31 -4,4 -9,7 -14,9 -6,2 -18,1 -20,-10 -1,-5 1,-10 5,-11z"/>
  <path class="fil2" d="M654 392c-2,2 -4,4 -6,6 0,-1 0,-1 1,-2 2,-4 -3,-7 -6,-5 -1,1 -2,2 -2,2 0,-2 -2,-5 -5,-3 -2,1 -3,3 -5,4 0,-2 1,-3 2,-5 1,-3 -4,-6 -6,-4 -2,2 -4,4 -6,6 1,-2 2,-4 3,-6 3,-3 -3,-7 -6,-4 -2,2 -4,4 -6,6 1,-2 2,-4 3,-6 2,-2 -1,-5 -3,-3 -4,2 -7,5 -11,7 1,-3 3,-6 5,-10 0,-1 -2,-3 -3,-2 -5,2 -10,7 -16,8 1,-3 2,-6 4,-8 1,-3 -2,-6 -5,-4 -4,3 -10,10 -16,12 1,-4 3,-8 6,-11 2,-3 -2,-8 -5,-5 -2,3 -5,6 -8,8 0,0 0,0 1,0 1,-2 -2,-5 -4,-3 -2,2 -4,4 -5,7 -1,2 0,4 2,4 2,0 4,0 5,0 0,1 -1,2 -1,4 0,1 2,3 3,3 6,2 10,0 15,-3 -1,2 1,4 3,4 4,1 8,-1 12,-4 0,1 -1,2 -1,3 -1,2 0,5 3,5 1,0 3,0 4,-1 0,3 1,5 4,6 2,0 4,-1 5,-1 0,0 0,0 0,1 0,3 3,5 5,5 3,-1 5,-1 8,-3 0,0 0,0 0,0 0,3 2,5 5,4 1,0 2,-1 3,-1 0,0 0,0 0,0 0,3 3,5 6,3 0,3 2,4 4,4 3,0 6,-1 8,-2 0,0 0,0 0,0 0,3 5,5 7,2 1,-1 2,-1 2,-2 2,-2 1,-4 -1,-5 1,-3 2,-5 3,-7 2,-3 -3,-6 -5,-4z"/>
  <path class="fil3" d="M556 354c0,-1 -1,-1 -2,-1 -11,0 -21,3 -32,5 0,0 0,0 0,0 0,0 0,0 0,-1 -1,0 -2,1 -1,1 3,5 5,10 9,14 4,4 7,8 11,11 3,3 8,-2 4,-5 -4,-3 -8,-7 -12,-11 -3,-3 -6,-5 -9,-8 9,0 18,-1 27,1 0,7 0,13 -3,21 0,0 1,1 1,1 6,-5 9,-13 9,-21 7,3 15,5 22,7 9,3 19,6 28,8 10,3 19,6 29,9 5,1 10,3 16,4 2,1 5,2 9,2 0,2 1,4 1,6 0,2 -1,5 -1,7 -1,3 -3,5 -5,7 0,1 -1,1 -1,1 -1,0 -1,0 -2,0 -31,-9 -63,-19 -95,-27 -2,-1 -3,3 -1,4 31,11 63,20 94,30 1,0 2,0 3,0 6,1 11,-6 13,-12 2,-4 3,-12 0,-16 0,-1 0,-2 0,-3 -7,-5 -17,-6 -25,-9 -10,-3 -20,-6 -31,-9 -9,-3 -19,-6 -28,-9 -9,-2 -18,-6 -28,-7z"/>
  <path class="fil2" d="M596 257c-1,-3 -3,-6 -4,-8 1,0 1,1 2,1 2,4 8,0 6,-4 0,-1 -1,-1 -1,-2 2,1 6,0 5,-3 -1,-2 -2,-4 -2,-7 1,1 2,2 4,4 2,2 7,-2 5,-5 -1,-2 -2,-4 -3,-7 2,1 3,3 4,5 2,4 8,0 6,-4 -1,-2 -2,-5 -3,-8 1,2 2,3 4,5 1,2 5,0 4,-2 -1,-4 -2,-9 -3,-13 3,3 5,5 8,8 1,1 3,0 3,-2 0,-5 -3,-12 -3,-18 3,2 5,5 7,7 2,2 6,0 5,-3 -1,-5 -6,-14 -5,-20 3,3 5,6 8,10 2,3 7,0 6,-3 -2,-3 -4,-7 -5,-10 0,0 0,0 0,0 2,2 5,1 4,-2 -1,-3 -2,-6 -5,-8 -1,-1 -4,-1 -5,1 0,2 -1,4 -1,5 -1,-1 -2,-1 -3,-2 -2,-1 -4,0 -5,1 -3,5 -2,10 -1,15 -2,-1 -4,0 -5,2 -2,4 -2,8 -1,13 0,-1 -1,-2 -2,-3 -2,-1 -5,-1 -6,2 0,1 0,3 -1,4 -2,-1 -5,0 -6,2 -1,2 -1,4 -1,5 0,0 0,0 -1,0 -2,-2 -5,0 -6,3 -1,2 -1,5 0,8 0,0 0,0 0,0 -3,-1 -6,1 -6,3 0,1 1,2 1,3 0,0 -1,0 -1,0 -3,0 -5,2 -5,5 -2,-1 -4,1 -5,3 0,3 0,5 0,8 0,0 0,0 0,0 -4,-1 -7,3 -5,6 1,1 1,2 2,3 1,2 3,2 5,1 2,1 3,3 5,5 3,2 7,-1 6,-4z"/>
  <path class="fil3" d="M665 158l0 -1c0,0 0,-1 0,-1 1,-5 1,-10 1,-15 0,0 0,0 0,0 1,0 1,0 1,0 1,-1 0,-2 -1,-2 -5,2 -10,3 -15,6 -5,2 -10,5 -14,8 -4,2 0,7 4,5 4,-3 9,-6 14,-9 3,-2 7,-5 10,-7 -3,9 -4,18 -8,26 -7,-1 -13,-3 -19,-8 -1,-1 -2,0 -2,1 3,6 10,12 18,13 -5,6 -9,13 -13,20 -5,8 -10,16 -15,25 -5,8 -10,17 -16,25 -2,5 -5,10 -8,14 -2,3 -3,6 -5,9 -2,-1 -3,0 -5,-1 -3,0 -5,-1 -7,-3 -2,-1 -5,-3 -6,-6 0,0 0,-1 0,-2 0,0 0,0 1,-1 17,-28 35,-55 51,-84 1,-2 -3,-4 -4,-2 -19,27 -36,54 -54,82 0,1 -1,2 -1,3 -2,6 3,12 9,16 3,3 11,6 15,4 1,1 2,1 3,0 6,-5 11,-14 15,-21 6,-9 11,-18 17,-27 5,-9 11,-17 16,-26 5,-8 11,-16 14,-24 1,-1 1,-1 2,-2 1,-5 2,-9 2,-14 0,0 0,-1 0,-1z"/>
 </g>
</svg>
