<?xml version="1.0" encoding="UTF-8"?>
<!DOCTYPE svg PUBLIC "-//W3C//DTD SVG 1.1//EN" "http://www.w3.org/Graphics/SVG/1.1/DTD/svg11.dtd">
<!-- Creator: CorelDRAW X7 -->
<svg xmlns="http://www.w3.org/2000/svg" xml:space="preserve" width="672px" height="1000px" version="1.1" style="shape-rendering:geometricPrecision; text-rendering:geometricPrecision; image-rendering:optimizeQuality; fill-rule:evenodd; clip-rule:evenodd"
viewBox="0 0 18 26"
 xmlns:xlink="http://www.w3.org/1999/xlink">
 <defs>
  <style type="text/css">
   <![CDATA[
    .fil0 {fill:#5B5F61}
   ]]>
  </style>
 </defs>
 <g id="Layer_x0020_1">
  <metadata id="CorelCorpID_0Corel-Layer"/>
  <g id="_2198515706944">
   <path class="fil0" d="M17 18c-2,0 -4,1 -6,2 -2,1 -3,2 -4,2 0,1 -1,1 -1,2 0,0 0,0 -1,0 0,0 0,1 0,1 -1,-1 -2,-2 -3,-3 0,-2 -1,-3 -2,-5 0,0 0,0 0,0 1,4 3,7 5,9 0,0 0,0 0,0 1,-1 2,-2 3,-3 1,-1 2,-1 3,-2 2,-1 4,-2 6,-3 1,0 1,0 0,0z"/>
   <path class="fil0" d="M18 18c-1,-2 -1,-3 -2,-4 0,0 0,0 0,0 0,-1 0,-1 0,-2 0,-1 0,-2 0,-4 0,-2 1,-4 1,-6 0,-1 0,-1 0,-1 0,0 0,0 0,0 0,0 0,0 0,0 0,0 0,0 0,0 0,0 0,0 -1,0 -1,-1 -2,-1 -3,-1 -1,0 -2,0 -3,0 0,0 -1,0 -2,0 0,0 0,0 0,0 3,0 6,1 8,2 0,2 -1,4 -1,6 0,1 0,2 0,4 -1,-2 -1,-3 -2,-5 0,0 0,0 -1,0 0,0 -1,0 -1,1 -1,0 -1,0 -2,1 -1,0 -2,0 -3,1 0,0 0,0 0,0 0,0 0,-1 0,-1 0,0 0,-1 0,-2 0,-1 0,-2 1,-4 0,-1 0,-2 0,-3 0,0 0,0 0,0 -1,1 -1,2 -1,3 0,2 -1,4 -1,5 0,1 0,1 0,2 0,0 0,0 0,0 1,0 1,0 1,0 0,1 -1,1 -1,1 -2,1 -4,3 -5,5 0,0 0,0 0,0 2,-2 3,-4 6,-5 1,0 2,-1 3,-2 1,0 1,0 2,0 0,0 1,-1 1,-1 1,2 1,3 2,5 1,1 1,1 1,2 0,0 0,0 1,0 0,0 0,1 0,1 0,0 1,1 1,2 1,0 1,0 1,0z"/>
  </g>
 </g>
</svg>
