<?xml version="1.0" encoding="UTF-8"?>
<!DOCTYPE svg PUBLIC "-//W3C//DTD SVG 1.1//EN" "http://www.w3.org/Graphics/SVG/1.1/DTD/svg11.dtd">
<!-- Creator: CorelDRAW X7 -->
<svg xmlns="http://www.w3.org/2000/svg" xml:space="preserve" width="850px" height="350px" version="1.1" style="shape-rendering:geometricPrecision; text-rendering:geometricPrecision; image-rendering:optimizeQuality; fill-rule:evenodd; clip-rule:evenodd"
viewBox="0 -20 250 350"
 xmlns:xlink="http://www.w3.org/1999/xlink">
 <defs>
  <style type="text/css">
   <![CDATA[
    .fil0 {fill:#F79740}
    .fil3 {fill:#DEC6AA}
    .fil2 {fill:#5B5F61}
    .fil1 {fill:#45C2CD}
   ]]>
  </style>
 </defs>
 <g id="Layer_x0020_1">
  <metadata id="CorelCorpID_0Corel-Layer"/>
  <g id="_1807443513840">
   <path class="fil0" d="M35 202c-1,1 -2,2 -3,3 2,-4 4,-8 5,-12 0,-2 -3,-3 -4,-1 -1,1 -2,2 -2,3 1,-4 3,-9 4,-13 1,-2 -2,-3 -3,-2 -2,2 -3,3 -4,5 2,-5 5,-10 6,-15 1,-2 -2,-3 -3,-2 -3,5 -6,10 -9,15 3,-8 7,-16 10,-24 1,-2 -2,-3 -3,-1 -3,4 -6,9 -9,13 2,-8 6,-15 9,-23 0,-2 -3,-3 -4,-2 0,1 0,1 0,1 1,-4 3,-9 4,-13 0,-2 -3,-3 -4,-2 -1,2 -3,5 -5,7 3,-5 5,-9 6,-14 1,-2 -2,-3 -3,-2 -2,3 -4,6 -6,8 3,-4 5,-8 8,-12 1,-2 -2,-4 -3,-2 -4,4 -6,8 -10,12 1,-7 7,-13 11,-19 2,-1 -1,-3 -2,-2 -3,3 -6,7 -9,10 1,-4 4,-7 6,-10 2,-2 -1,-4 -2,-3 -2,2 -3,3 -4,4 0,-2 -2,-3 -4,-1 -1,2 -2,4 -4,7 -1,1 1,3 2,2 1,0 2,0 2,-1 0,2 -1,4 -1,6 -1,2 1,2 3,1 0,0 0,0 0,0 -1,3 -2,6 -2,10 0,1 2,2 3,1 0,0 1,-1 1,-1 -1,2 -2,5 -3,8 -1,1 1,3 3,2 2,-2 4,-4 5,-6 -2,4 -4,8 -4,13 0,2 2,2 3,1 2,-4 5,-7 7,-10 -2,6 -4,12 -6,18 -1,2 -2,4 -3,6 0,2 2,3 3,2 -1,4 -2,8 -2,12 0,1 2,2 3,1 1,-1 1,-1 2,-2 -2,5 -4,10 -5,15 0,2 2,2 3,1 1,-1 2,-2 3,-3 -2,3 -3,7 -5,10 0,2 2,3 4,2 2,-2 3,-4 5,-6 -2,4 -4,8 -5,11 -1,2 2,4 3,3 2,-2 3,-3 5,-5 -2,4 -3,8 -4,12 0,2 3,3 4,1 0,0 0,0 0,0 0,1 -1,3 -1,5 -1,2 2,3 3,3 0,0 0,0 0,1 -1,0 0,1 0,2 1,0 2,1 3,1 1,0 1,-1 2,-1 2,0 2,-4 0,-4 1,-4 2,-8 3,-12 1,-2 -1,-3 -2,-3 1,-2 2,-5 3,-7 0,-2 -2,-4 -4,-2z"/>
   <path class="fil1" d="M178 217c0,0 0,1 0,1 -1,1 -1,2 -1,2 0,1 0,2 1,2 0,6 0,12 0,18 0,2 3,1 4,0 1,-7 0,-13 0,-19 0,-2 0,-3 0,-4 2,7 3,14 4,20 0,2 3,2 3,0 -1,-9 -2,-18 0,-27 0,0 0,1 0,1 1,5 1,10 2,15 1,1 4,2 4,0 0,0 0,-1 0,-1 0,0 0,0 0,0 0,0 0,0 0,0 0,-5 -1,-10 -2,-15 0,-2 0,-5 0,-7 1,5 2,10 3,15 1,1 3,1 3,-1 0,-9 -1,-18 1,-27 0,1 0,1 0,2 0,5 0,11 1,16 1,1 3,1 3,-1 1,-5 0,-10 -1,-15 0,0 0,0 0,0 1,-3 1,-6 2,-8 0,6 1,11 3,17 1,1 3,1 3,-1 0,-7 -1,-15 -1,-23 2,6 2,13 3,19 0,2 3,2 3,0 0,-4 -1,-9 -1,-13 0,1 0,2 1,4 0,1 3,1 3,-1 0,-1 -1,-3 -1,-4 1,0 2,-1 2,-1 1,-6 1,-11 0,-16 -1,-1 -3,-1 -3,0 0,1 -1,2 -1,3 0,0 0,-1 0,-1 0,-1 -2,-2 -3,0 0,2 0,4 -1,6 0,-1 0,-2 0,-3 -1,-1 -3,-1 -3,0 -1,3 -2,7 -2,11 0,-2 0,-4 0,-6 -1,-1 -3,-2 -3,0 -1,3 -2,6 -3,9 0,0 0,0 0,-1 0,-1 -3,-1 -3,0 -2,6 -2,11 -2,16 -1,-2 -1,-4 -1,-5 -1,-2 -3,-2 -4,-1 -1,3 -1,6 -1,8 -1,0 -3,0 -3,1 -1,4 -2,8 -2,12 -1,-2 -1,-3 -2,-5 -1,-2 -3,-2 -4,0 0,3 -1,6 -1,8z"/>
   <path class="fil2" d="M134 232c0,-9 -2,-18 -4,-26 -1,-2 -4,-1 -3,1 1,8 3,17 3,26 0,7 0,15 -2,23 0,0 0,0 0,1 -6,-1 -13,-1 -19,-1 -8,-1 -15,-2 -22,-4 1,-2 0,-4 1,-6 0,-4 0,-8 1,-12 1,-9 3,-17 4,-26 0,-2 -3,-3 -4,-1 0,9 -2,17 -4,25 -1,4 -1,8 -2,12 0,2 0,4 0,6 -1,2 -1,4 0,6 0,1 1,1 2,1 7,3 15,3 22,4 4,0 7,0 11,0 4,0 8,0 13,-1 1,0 1,-1 1,-2 1,0 1,-1 2,-2 2,-8 1,-16 0,-24z"/>
   <path class="fil2" d="M129 212c7,3 13,7 22,9 4,0 8,0 12,-1 3,-1 6,-2 9,-3 3,0 6,-1 8,-3 2,-1 1,-4 0,-5 -4,-2 -13,3 -17,5 -4,1 -8,2 -11,2 -8,-1 -14,-5 -21,-7 -2,-1 -3,2 -2,3z"/>
   <path class="fil2" d="M41 191c1,0 2,0 3,1 1,1 1,1 1,2 1,0 1,1 1,2 0,0 0,0 0,0 1,0 1,1 1,1 1,1 1,2 2,2 1,2 2,4 4,5 2,2 4,5 6,6 3,2 7,3 11,3 4,0 9,0 14,0 1,0 2,2 1,3 -5,1 -9,2 -14,2 -4,0 -8,-1 -12,-3 -9,-3 -16,-13 -20,-20 -2,-2 0,-4 2,-4z"/>
   <path class="fil3" d="M108 242c2,-1 3,-2 5,-3 -2,1 -3,2 -5,3zm20 4c-1,1 -2,2 -3,4 1,1 1,2 0,3 -2,1 -3,1 -4,2 -2,1 -5,-1 -3,-3 0,-1 1,-1 1,-2 -3,2 -6,3 -10,4 -2,1 -4,-2 -2,-4 4,-2 8,-4 12,-7 -2,1 -4,2 -6,3 -4,2 -7,4 -11,5 -2,1 -5,-1 -3,-3 -2,0 -4,-2 -2,-4 4,-4 9,-6 13,-8 3,-2 6,-4 8,-6 -2,0 -3,1 -5,2 -5,4 -11,7 -17,10 -2,1 -4,-2 -2,-4 2,-1 3,-2 5,-3 -1,0 -2,1 -3,1 -2,1 -4,-2 -1,-4 0,0 0,0 1,0 6,-4 13,-9 20,-11 1,-1 2,-2 2,-3 -7,2 -13,6 -20,9 0,0 0,0 0,0l0 0c0,0 0,0 0,1 -2,0 -3,-3 -2,-4 5,-3 11,-5 16,-9 -2,1 -4,2 -6,3 -3,1 -6,3 -10,4 -1,0 -3,-2 -1,-3 3,-2 7,-4 10,-6 -3,0 -6,1 -9,2 -2,1 -3,-2 -1,-2 4,-2 9,-4 14,-2 1,0 1,1 1,2 3,-1 5,-1 8,-1 1,0 1,2 0,3 1,0 1,-1 1,-1 2,0 2,1 2,2 1,1 0,3 0,4 0,0 1,0 1,0 2,0 3,2 2,3 -1,1 -1,1 -2,1 2,1 3,2 2,3 0,2 -1,3 -2,4 1,0 1,0 1,0 2,-1 3,2 2,3 -1,1 -2,3 -3,4 1,0 3,0 4,0 2,0 2,2 1,3 0,1 0,1 -1,1 2,-1 3,2 2,4z"/>
   <path class="fil2" d="M63 296c-2,-2 -5,-5 -4,-9 0,-1 1,-3 2,-4 2,-5 6,-8 9,-12 4,-3 8,-7 12,-11 1,-1 3,-3 4,-5 1,-2 -1,-3 -2,-2 -3,3 -6,6 -9,8 -3,3 -6,5 -9,8 -5,5 -11,11 -13,19 -1,5 1,10 3,14 3,3 9,-2 7,-6z"/>
   <path class="fil2" d="M145 298c-3,0 -5,2 -7,2 -1,0 -3,-1 -4,-3 -2,-3 -3,-7 -4,-11 -2,-9 -2,-17 -4,-26 0,-2 -3,-2 -3,1 1,4 1,9 1,14 1,5 1,10 3,15 1,5 2,10 5,13 2,2 4,3 6,4 3,1 8,0 9,-4 1,-2 0,-4 -2,-5z"/>
   <path class="fil0" d="M30 313c4,1 8,1 12,0 -2,-1 -3,-3 -6,-4 -1,-1 0,-3 1,-2 6,1 11,3 16,4 4,1 8,3 12,3 -2,-2 -3,-4 -6,-6 -1,0 0,-2 2,-2 10,2 19,6 29,8 -4,-3 -9,-5 -13,-7 -2,-1 0,-3 2,-3 14,4 27,9 41,11 -6,-2 -12,-5 -18,-7 -2,-1 -1,-4 2,-3 11,3 21,6 31,9 -4,-2 -8,-3 -12,-5 -3,-1 -1,-4 2,-3 13,4 25,9 39,11 -9,-4 -19,-8 -29,-9 -3,-1 -2,-4 1,-3 11,1 22,4 32,7 -5,-3 -10,-5 -16,-7 -3,-1 0,-3 2,-2 6,2 12,4 18,6 4,2 10,3 15,4 -1,-1 -2,-2 -3,-2 -2,-1 1,-3 2,-2 4,1 8,3 12,4 0,0 0,0 0,0 -1,-1 0,-2 1,-2 1,-1 2,0 2,1 1,0 1,0 1,0 2,0 4,1 5,2 2,1 1,2 -1,2 -5,0 -9,-1 -14,-2 1,0 0,2 -1,2 -3,0 -7,-1 -9,-1 0,0 0,0 1,0 2,2 0,3 -3,3 -4,-1 -8,-2 -12,-3 2,1 4,2 6,4 2,1 1,3 -1,3 -7,-1 -13,-2 -19,-4 0,1 -2,2 -3,2 -7,-1 -14,-2 -21,-4 1,1 2,1 3,1 2,1 1,4 -2,3 -13,-1 -25,-4 -38,-8 2,1 4,2 5,3 2,1 -1,2 -2,2 -11,0 -20,-4 -29,-7 1,2 2,3 4,5 1,1 0,2 -2,2 -9,0 -17,-4 -26,-6 1,1 2,1 3,2 0,1 0,2 -1,2 -5,1 -10,1 -15,0 -2,0 -2,-2 0,-2z"/>
   <path class="fil2" d="M205 219c-4,9 -9,18 -14,27 0,2 2,3 3,1 5,-9 9,-18 14,-27 5,-9 10,-19 15,-28 1,-2 -2,-3 -3,-2 -6,10 -10,19 -15,29z"/>
   <path class="fil2" d="M200 173c2,3 5,5 7,6 3,3 7,4 11,6 1,0 2,-2 1,-2 -3,-3 -6,-4 -9,-6 -2,-1 -3,-2 -4,-4 0,0 -1,-1 -1,-1 1,-1 2,-2 3,-3 2,-1 4,-3 6,-4 0,0 0,1 1,1 2,1 4,2 6,2 0,0 0,1 1,1 0,4 0,8 1,12 0,2 2,2 2,0 0,-7 0,-14 0,-20 0,-1 0,-1 0,-1 0,0 0,0 0,0 0,-2 1,-4 1,-7 0,-1 -2,-3 -3,-2 -4,4 -7,7 -11,10 -2,1 -4,3 -5,4 -2,1 -4,3 -6,4 0,0 -1,0 -1,1 -1,1 -1,3 0,3z"/>
   <path class="fil2" d="M180 206c-3,6 -6,11 -9,17 -2,3 -4,7 -5,10 -1,1 -1,1 0,2 0,0 0,0 0,0 -5,9 -3,20 6,24 6,4 15,1 18,-6 1,-1 -1,-2 -1,-1 -2,2 -5,5 -8,5 -2,1 -5,1 -8,0 -6,-4 -7,-12 -4,-18 1,1 3,2 4,3 4,2 7,4 11,5 2,0 2,-3 1,-3 -3,-1 -6,-2 -9,-4 -1,-1 -3,-3 -4,-4 -1,-1 -1,-1 -2,-2 0,0 0,-1 0,-1 1,1 1,1 2,1 1,2 3,4 5,5 3,2 8,4 12,4 1,0 1,-2 0,-2 -4,-1 -8,-3 -11,-6 -1,-1 -3,-2 -4,-3 0,-1 -1,-2 -2,-3 5,-7 9,-15 13,-23 2,-5 5,-10 7,-15 1,-2 2,-4 3,-6 1,-2 3,-5 4,-7 1,-2 2,-5 3,-7 1,-2 -1,-2 -2,-1 -2,2 -3,5 -5,8 -1,2 -3,5 -4,8 -1,1 -2,3 -3,4 -3,5 -5,11 -8,16z"/>
   <path class="fil2" d="M184 215c-1,2 1,3 2,2 4,-7 8,-15 12,-23 0,-1 -2,-2 -3,-1 -4,7 -7,15 -11,22z"/>
   <path class="fil2" d="M161 141c-2,-6 -4,-13 -8,-18 -5,-5 -10,-9 -16,-12 -13,-6 -28,-7 -41,-3 -16,5 -28,18 -33,34 -4,15 -2,31 6,43 8,14 23,22 38,22 11,0 21,-2 30,-8 8,-5 13,-13 17,-21 -12,0 -25,-7 -29,-19 -1,-1 0,-2 0,-3 3,-1 7,-1 10,-2 3,-1 6,-1 8,-2 7,-3 12,-6 18,-10 0,0 0,-1 0,-1zm3 1c0,0 0,0 0,1 0,0 0,1 -1,2 -2,2 -5,4 -8,6 -3,1 -6,3 -9,4 -4,1 -7,2 -11,3 -2,0 -4,1 -7,1 6,11 17,15 29,13 2,-2 6,1 4,4 -4,10 -10,19 -19,26 -8,6 -18,10 -28,10 -17,1 -32,-4 -43,-16 -11,-12 -16,-28 -14,-43 1,-16 10,-32 23,-42 5,-3 10,-6 16,-7 0,0 0,0 0,0 8,-5 14,-11 16,-20 1,-1 3,-1 3,1 -1,5 -3,10 -7,14 2,-1 4,-3 5,-4 4,-4 8,-8 11,-12 0,-2 3,-1 2,0 -2,6 -6,10 -10,14 -2,2 -3,3 -5,5 6,-1 13,0 20,3 16,5 32,19 33,37z"/>
   <path class="fil2" d="M122 140c-1,-2 -4,-5 -6,-6 -2,0 -3,1 -2,2 2,2 3,4 4,6 2,2 5,1 4,-2z"/>
   <path class="fil2" d="M138 132c0,0 0,-1 0,-1 -1,-1 -1,-1 -2,-2 -1,-1 -2,-2 -4,-3 -1,-1 -2,0 -2,1 1,3 3,5 4,7 2,3 6,1 4,-2z"/>
   <path class="fil2" d="M48 233c-6,-43 -14,-86 -19,-130 0,-1 -1,-1 -1,-1 1,-1 1,-3 0,-3 -2,-1 -4,-1 -6,-1 -3,1 -5,1 -7,1 -4,1 -8,3 -12,3 -2,0 -2,3 0,3 4,0 8,-1 12,-2 2,0 4,-1 7,-1 1,0 3,0 4,0 0,0 -1,1 -1,2 1,7 2,14 3,20 -1,0 -2,0 -3,1 -1,0 -3,0 -4,1 0,0 0,0 0,0 0,0 0,0 0,1 -1,1 0,1 1,1 0,0 0,0 0,0 1,1 1,1 2,1 1,0 1,-1 2,-1 1,0 1,0 2,0 1,8 2,17 3,25 -4,0 -8,2 -9,4 -1,2 0,3 2,3 1,-1 3,-2 4,-2 1,-1 2,-1 3,-1 1,10 2,20 4,29 0,0 -1,0 -1,0 -2,0 -5,0 -7,2 -2,0 -1,3 0,3 3,0 5,0 7,0 1,0 1,0 1,-1 1,9 2,18 4,26 -1,0 -2,1 -3,1 -2,0 -4,0 -6,1 -2,0 -2,3 0,4 2,0 4,0 6,-1 1,0 2,0 3,0 1,4 1,7 2,11 -3,0 -6,2 -8,2 -4,1 -7,2 -11,4 0,0 0,0 0,0 -1,-1 -1,-1 -1,-1 0,0 1,0 1,0 2,1 1,-2 1,-3 -1,-1 -1,-3 -1,-4 -1,-3 -1,-7 -2,-10 -3,-11 -5,-22 -7,-33 -3,-22 -6,-44 -10,-66 -1,-2 -3,-1 -3,1 3,22 6,45 9,68 2,11 4,22 6,33 1,3 1,6 2,9 0,3 0,6 2,9 1,0 2,0 3,0 1,0 1,0 1,0 4,-1 8,-1 12,-2 3,0 7,0 9,-2 2,0 4,-2 4,-4z"/>
   <path class="fil2" d="M131 44c0,4 2,7 6,8 1,1 2,2 2,3 0,0 0,1 0,1 0,0 0,0 0,1 0,0 0,0 0,0 0,0 0,0 0,0 0,0 0,0 0,0 0,0 0,0 -1,0 1,0 1,0 1,0 -1,1 -1,1 -1,1 -1,1 -1,2 -1,2 -1,2 -1,3 -1,4 2,3 5,2 7,2 1,0 2,0 2,1 1,1 1,1 1,2 -4,7 -6,15 -5,23 1,-2 2,-3 3,-5 1,-2 3,-3 4,-5 2,-2 3,-4 5,-6 0,-1 1,-1 1,0 2,0 4,1 3,2 0,4 0,8 4,10 3,3 8,0 11,-2 2,-2 4,-1 4,1 0,7 7,11 13,10 3,0 6,-1 8,-3 2,-2 3,-6 2,-9 0,-2 3,-4 4,-1 1,2 2,4 4,5 2,0 4,-1 5,-3 4,-4 5,-10 4,-16 0,-1 2,-2 2,-1 0,0 0,0 0,1 5,2 11,4 16,2 4,-2 6,-6 8,-10 1,-3 2,-8 0,-11 -1,-1 -2,-2 -3,-2 -1,-1 -3,0 -5,0 0,0 0,0 0,0 -3,1 -4,-3 -2,-4 5,-1 7,-5 7,-9 -1,-5 -4,-10 -8,-13 -4,-5 -9,-7 -15,-8 -6,-1 -12,1 -16,6 -2,1 -4,0 -4,-2 0,-5 -1,-10 -6,-13 -3,-2 -8,-2 -12,-1 -10,3 -19,12 -19,23 0,2 -3,3 -4,2 -4,-3 -8,-6 -13,-5 -4,1 -7,4 -9,8 -2,3 -3,7 -2,11zm-2 -13c3,-5 7,-9 13,-10 4,-1 9,0 13,2 2,-10 11,-19 21,-22 5,-1 11,-2 16,1 5,3 7,7 8,12 4,-3 9,-4 15,-4 6,0 12,3 17,7 7,6 16,19 9,28 1,0 2,1 3,3 3,3 3,8 2,12 -1,10 -10,18 -21,16 -2,-1 -3,-2 -5,-3 1,6 -2,13 -6,16 -2,2 -4,4 -7,4 -2,0 -3,-1 -4,-2 0,2 -1,4 -3,6 -3,3 -7,5 -11,5 -7,0 -15,-4 -17,-11 -4,2 -8,4 -13,2 -4,-2 -6,-7 -6,-12 -2,2 -3,4 -5,6 -3,4 -5,8 -6,13 0,2 -3,2 -3,0 -4,-10 -2,-21 2,-30 -3,0 -6,-1 -8,-4 -2,-3 -1,-7 1,-10 -10,-4 -10,-17 -5,-25z"/>
   <path class="fil2" d="M173 74c0,0 0,-1 1,-1 8,-3 17,-1 26,-2 0,-5 0,-10 -1,-16 0,-2 0,-5 0,-7 0,-2 0,-5 1,-7 -2,-2 -4,-4 -7,-6 -2,-3 -5,-6 -7,-9 -1,2 -2,4 -3,5 -1,2 -3,5 -5,7 -2,2 -4,4 -6,6 1,10 2,20 1,30zm-10 -26c3,-5 8,-8 11,-13 2,-2 5,-4 6,-7 1,-2 2,-5 4,-7 1,-1 3,0 4,1 2,4 5,7 8,10 3,4 7,7 10,11 1,1 0,3 -1,2 -1,0 -2,-1 -2,-1 0,1 -1,3 -1,5 0,3 1,6 1,9 1,5 2,10 1,16 0,1 -1,2 -2,2 -9,0 -18,-2 -26,1 -2,1 -3,-1 -3,-2 0,0 -1,0 -1,0 0,3 -4,2 -4,0 2,-9 1,-19 1,-28 -1,1 -2,3 -3,4 -1,2 -5,-1 -3,-3z"/>
   <path class="fil2" d="M179 50c0,0 0,0 0,0 0,-1 1,-2 1,-1 2,-1 4,-2 5,-2 2,0 2,3 1,3 -1,1 -2,1 -4,2 1,2 1,5 1,8 2,0 5,0 7,0 0,-4 0,-8 1,-12 0,-1 2,-1 2,0 0,5 0,9 0,14 0,0 0,1 -1,1 -4,1 -7,0 -10,1 -2,0 -3,-1 -3,-2 0,-2 0,-4 0,-6 0,-1 0,-3 0,-4 -1,-1 -1,-1 0,-2z"/>
  </g>
 </g>
</svg>
