<?xml version="1.0" encoding="UTF-8"?>
<!DOCTYPE svg PUBLIC "-//W3C//DTD SVG 1.1//EN" "http://www.w3.org/Graphics/SVG/1.1/DTD/svg11.dtd">
<!-- Creator: CorelDRAW X7 -->
<svg xmlns="http://www.w3.org/2000/svg" xml:space="preserve" width="174px" height="200px" version="1.1" style="shape-rendering:geometricPrecision; text-rendering:geometricPrecision; image-rendering:optimizeQuality; fill-rule:evenodd; clip-rule:evenodd"
viewBox="0 0 211 243"
 xmlns:xlink="http://www.w3.org/1999/xlink">
 <defs>
  <style type="text/css">
   <![CDATA[
    .fil7 {fill:#FCCCA8}
    .fil2 {fill:#F79740}
    .fil5 {fill:#E1C183}
    .fil3 {fill:#C1E4DE}
    .fil8 {fill:#AECECE}
    .fil9 {fill:#71C9C2}
    .fil6 {fill:#72C7AC}
    .fil1 {fill:#5B5F61}
    .fil0 {fill:#45C2CD}
    .fil4 {fill:#60AA94}
   ]]>
  </style>
 </defs>
 <g id="Layer_x0020_1">
  <metadata id="CorelCorpID_0Corel-Layer"/>
  <g id="_2400902281968">
   <path class="fil0" d="M2 238c4,0 9,0 13,-1 -1,-1 -3,-3 -6,-4 -2,-1 -1,-3 1,-2 7,1 12,3 18,4 5,1 10,2 15,3 -2,-2 -4,-4 -7,-6 -1,-1 0,-3 2,-2 12,2 22,5 34,7 -5,-3 -10,-5 -15,-7 -2,-1 0,-3 3,-2 16,3 31,8 48,10 -7,-3 -14,-5 -21,-7 -3,-1 -2,-4 2,-3 12,2 24,6 37,8 -5,-1 -10,-3 -15,-4 -3,-1 -1,-4 3,-3 15,3 29,7 45,10 -10,-5 -22,-8 -34,-9 -3,0 -2,-3 1,-3 14,1 26,4 38,6 -6,-2 -12,-4 -19,-6 -3,-1 0,-3 3,-3 7,2 14,4 21,6 5,2 11,3 17,4 -1,-1 -2,-2 -3,-2 -2,-1 1,-3 3,-2 4,1 9,3 13,4 0,-1 0,-1 0,-1 -1,0 0,-1 2,-2 1,0 2,1 2,1 1,0 1,1 1,1 3,0 5,1 6,2 2,0 1,2 -1,2 -6,0 -11,-1 -16,-2 0,0 0,2 -2,2 -4,0 -7,0 -11,-1 1,0 1,0 1,1 3,1 0,3 -2,2 -5,-1 -10,-2 -15,-3 3,2 5,3 8,4 2,1 1,4 -2,3 -8,0 -15,-1 -22,-3 0,1 -2,2 -4,2 -9,-1 -16,-2 -24,-4 1,1 2,1 3,2 2,1 1,3 -2,3 -16,-1 -30,-5 -45,-8 2,1 4,2 6,3 2,1 -1,3 -3,2 -12,0 -23,-3 -34,-6 2,2 3,3 5,4 1,1 0,3 -2,3 -11,0 -21,-4 -31,-6 1,1 2,1 3,2 1,1 1,2 -1,2 -5,1 -12,1 -18,1 -2,-1 -1,-3 1,-2z"/>
   <path class="fil1" d="M135 146c-2,-9 -4,-18 -7,-27 -1,-2 -4,-1 -3,1 2,9 4,18 5,28 0,8 1,17 -1,25 0,0 0,0 0,1 -7,-1 -14,0 -21,0 -8,0 -15,-1 -23,-2 0,-3 0,-5 0,-7 0,-5 0,-9 1,-13 1,-10 2,-19 2,-29 0,-2 -4,-2 -4,0 0,9 -2,18 -3,27 0,4 -1,8 -1,13 0,2 0,4 0,6 -1,2 -1,5 0,7 1,1 2,1 3,1 8,2 16,3 24,3 4,0 8,-1 12,-1 4,0 9,0 13,-1 1,-1 2,-2 1,-3 1,0 2,-1 2,-2 2,-9 1,-18 0,-27z"/>
   <path class="fil1" d="M176 112c-1,-1 -2,-1 -3,0 0,0 -1,0 -2,1 0,0 0,1 -1,2 0,0 0,-1 0,-1 -1,1 -1,1 -2,1 0,1 -1,2 -2,2 -1,1 -3,3 -5,4 -3,1 -5,3 -8,3 -4,1 -8,1 -11,0 -5,-2 -10,-4 -14,-5 -2,-1 -3,1 -2,2 4,3 8,5 13,7 4,1 8,2 12,2 10,-1 20,-8 27,-14 1,-1 1,-4 -2,-4z"/>
   <path class="fil2" d="M107 159c1,-1 3,-2 5,-3 -2,1 -4,2 -5,3zm22 3c-1,1 -2,3 -3,4 0,1 1,3 -1,4 -1,1 -3,2 -4,3 -2,1 -5,-2 -3,-4 0,0 1,-1 1,-2 -3,2 -7,4 -11,5 -2,1 -4,-2 -2,-4 5,-2 9,-5 12,-9 -2,1 -4,3 -6,4 -4,2 -8,5 -12,7 -2,1 -5,-2 -3,-4 -2,0 -4,-2 -2,-4 4,-4 9,-7 13,-10 3,-2 6,-4 9,-7 -2,1 -4,2 -5,3 -6,4 -12,8 -18,12 -3,1 -5,-2 -3,-4 2,-2 3,-3 5,-4 -1,1 -2,1 -3,2 -2,1 -4,-3 -1,-4 0,-1 0,-1 1,-1 7,-4 13,-10 21,-13 1,-1 2,-2 2,-3 -8,3 -14,7 -21,11 0,0 0,0 0,0l0 0c0,0 0,0 -1,0 -1,1 -3,-2 -1,-3 5,-4 11,-7 17,-11 -3,1 -5,2 -7,3 -4,2 -7,4 -10,5 -2,0 -4,-2 -2,-3 3,-2 7,-4 11,-7 -4,0 -7,1 -10,3 -2,1 -3,-2 -2,-3 5,-2 10,-4 16,-3 1,0 1,1 1,2 3,-1 5,-1 8,-1 1,1 2,2 1,3 1,0 1,0 1,0 1,-1 2,0 3,1 0,2 0,3 -1,4 1,0 1,0 2,0 2,0 3,2 1,4 0,0 -1,1 -1,1 1,0 3,2 2,3 0,2 -1,3 -2,5 1,-1 1,-1 1,-1 2,0 4,2 3,4 -1,1 -3,2 -4,4 2,-1 3,-1 5,0 2,0 2,2 1,3 0,1 0,1 -1,1 3,-1 4,2 3,4z"/>
   <path class="fil1" d="M74 223c-2,-2 -6,-4 -6,-8 -1,-2 0,-3 0,-5 1,-5 4,-10 6,-14 3,-5 6,-9 8,-14 1,-2 3,-4 3,-7 0,-2 -2,-2 -3,0 -2,3 -4,6 -6,9 -2,4 -4,8 -6,11 -4,7 -9,14 -8,22 0,6 4,10 7,13 4,3 8,-4 5,-7z"/>
   <path class="fil1" d="M148 223c-3,-1 -6,1 -8,1 -2,-1 -3,-2 -4,-3 -2,-4 -2,-10 -3,-14 -1,-10 0,-20 0,-30 0,-3 -3,-3 -3,0 -1,6 -1,11 -1,16 -1,6 -1,13 0,19 0,5 1,11 4,15 1,3 3,4 6,5 3,1 9,1 10,-4 1,-2 1,-5 -1,-5z"/>
   <path class="fil1" d="M165 81c3,-7 5,-14 4,-21 -1,-8 -4,-15 -7,-21 -8,-13 -21,-23 -35,-27 -17,-6 -37,-1 -50,11 -13,10 -21,26 -21,42 -1,17 7,33 21,43 10,7 20,11 32,11 10,-1 20,-4 28,-9 -11,-8 -18,-21 -14,-35 -1,-1 0,-2 1,-2 3,0 7,3 10,4 3,1 6,2 9,3 7,2 15,2 22,1 0,0 0,0 0,0zm2 3c0,0 0,0 0,0 0,0 -1,1 -2,1 -3,2 -7,1 -11,1 -3,0 -7,-1 -10,-2 -4,-1 -8,-2 -12,-3 -2,-1 -5,-2 -7,-4 -1,13 7,24 18,30 3,-1 5,4 2,6 -10,6 -22,11 -33,11 -11,1 -23,-2 -32,-8 -15,-9 -26,-23 -29,-41 -2,-16 3,-33 13,-47 12,-13 28,-22 46,-23 7,0 14,1 20,3 0,0 0,0 0,0 9,0 19,-1 26,-8 2,-1 4,1 2,2 -4,4 -9,7 -14,9 2,0 4,0 7,0 5,-1 11,-2 16,-5 2,-1 3,1 2,2 -5,3 -11,5 -17,6 -3,1 -5,1 -8,1 6,4 12,9 16,15 12,14 18,37 7,54z"/>
   <path class="fil1" d="M131 57c1,-3 0,-8 -2,-10 -1,-1 -3,0 -3,1 1,3 0,6 0,8 1,3 4,3 5,1z"/>
   <path class="fil1" d="M151 59c0,0 0,-1 0,-1 0,-1 -1,-2 -1,-3 0,-2 0,-4 -1,-5 0,-1 -2,-1 -2,0 -2,2 -1,5 -1,8 -1,4 4,4 5,1z"/>
   <path class="fil3" d="M119 199c2,2 5,3 7,4 3,2 5,3 8,4 0,0 0,0 0,0 2,0 4,-1 6,-2 2,-1 4,-2 6,-3 2,-1 4,-2 6,-3 2,-1 5,-2 7,-1 2,-1 4,0 5,1 2,0 4,1 6,2 3,1 6,2 9,3 0,0 0,0 0,0 2,-1 4,-2 5,-3 2,0 4,-1 6,-2 2,-1 5,-2 7,-2 1,-1 2,-1 3,-1 -1,-6 -1,-11 -1,-16 0,-6 0,-13 0,-19 0,-6 0,-12 -1,-18 0,-6 0,-11 0,-16 -1,0 -2,0 -3,1 -1,0 -2,1 -4,2 -3,2 -6,4 -9,6 -1,0 -1,0 -1,0 -1,1 -2,1 -3,0 -4,-2 -9,-4 -13,-6 -3,-1 -6,-2 -9,-4 -1,1 -2,2 -3,2 -2,1 -4,2 -6,3 -3,2 -7,5 -10,7 -1,0 -2,0 -2,0 -4,1 -11,-3 -13,-4 -3,-2 -6,-3 -8,-5 -2,-2 -4,-3 -5,-4 0,5 0,11 1,17 0,6 1,12 1,18 1,7 1,13 1,19 1,6 1,12 0,17 3,1 5,2 7,3zm-11 -75c0,0 0,0 0,0 0,0 1,-1 1,-1 2,1 4,2 6,3 3,1 6,2 9,4 2,1 4,2 7,3 1,0 2,1 3,1 4,-2 7,-5 11,-7 2,0 6,-3 9,-3 0,0 0,0 1,0 0,0 1,0 2,0 1,0 2,0 3,0 2,1 5,2 7,3 4,1 9,3 12,5 4,-2 7,-3 10,-5 3,-1 7,-3 9,-2 1,-1 2,-1 2,0 2,6 2,12 2,18 1,5 1,11 1,17 0,6 1,12 1,18 1,3 1,6 1,9 0,3 1,6 1,8 0,1 0,2 0,2 0,1 -1,1 -1,2 -2,1 -4,1 -6,2 -2,0 -4,1 -6,2 -2,1 -4,2 -5,2 -2,1 -4,2 -6,2 -1,1 -1,1 -2,1 -4,0 -7,-1 -11,-3 -2,-1 -3,-1 -5,-2 -1,-1 -3,-2 -4,-2 -1,0 -2,0 -4,1 -1,0 -2,1 -3,1 -2,1 -4,2 -6,4 -4,2 -8,5 -13,5 0,0 -1,0 -1,-1 -1,0 -3,0 -3,0 -1,-1 -2,-1 -3,-2 -2,-1 -4,-2 -6,-3 -3,-1 -5,-3 -7,-4 -1,-1 -3,-2 -4,-4 -2,1 -3,0 -4,-2 0,-6 0,-11 0,-17 0,-6 0,-13 0,-19 0,-6 0,-12 0,-18 -1,-6 -1,-12 2,-18z"/>
   <path class="fil4" d="M159 168c0,0 0,0 0,0 0,0 0,0 0,0 0,0 0,0 0,0 0,0 0,0 0,-1 0,1 0,1 -1,1 1,0 1,0 1,0zm0 -6c0,0 0,0 0,1 0,1 0,2 0,3 0,0 0,0 0,0 0,-1 0,-2 0,-3 0,-1 0,-1 0,-1zm3 5c0,0 0,0 0,0 0,-1 0,-2 0,-3 0,0 0,-2 0,-2 0,0 0,1 0,1 0,1 0,3 0,4zm3 -3c0,1 0,2 0,2 0,0 1,0 1,0 0,-1 -1,-1 -1,-2 0,0 0,0 0,0l0 0zm0 4c0,0 0,0 0,1 0,0 0,0 0,0 0,0 0,0 0,0 0,-1 0,-1 0,-1 0,0 0,0 1,-1 -1,0 -1,1 -1,1 0,0 0,0 0,0zm3 -4c0,0 0,0 0,0 0,0 0,0 0,0 0,0 0,0 0,0 0,0 0,0 0,0zm1 4c0,0 1,0 1,0 0,0 -1,-1 -1,-1 0,0 0,1 0,1zm2 -2c0,0 0,1 0,1 0,0 0,0 1,0 0,0 0,-1 0,-1 0,0 0,0 0,0 0,0 0,0 0,-1 0,0 -1,0 -1,0 0,0 0,0 0,0 0,1 0,1 0,1zm-17 6c0,0 0,0 0,0 0,0 0,0 0,0 0,0 0,0 0,0 0,-5 0,-10 0,-16 0,0 1,0 1,0 1,0 1,0 2,0 3,0 6,1 9,3 1,1 2,2 4,2 1,1 3,2 4,2 3,1 1,6 0,8 -1,1 -2,3 -3,4 -2,0 -4,1 -6,0 -2,0 -4,0 -6,0 -1,0 -3,0 -5,0 0,-1 0,-2 0,-3z"/>
   <path class="fil4" d="M116 187c0,0 0,0 0,0 0,0 1,0 1,-1 0,0 -1,0 -1,0 0,1 0,1 0,1zm6 7c0,0 0,0 0,-1 0,0 0,0 0,0 0,1 0,1 -1,1 0,0 0,1 0,1 0,0 0,0 0,1 1,-1 1,-1 2,-1 0,0 -1,-1 -1,-1zm0 -7c0,0 1,0 1,0 0,0 0,0 0,0 0,0 -1,0 -1,0zm4 6c0,0 0,-1 0,-1 0,0 0,0 0,0 -1,1 -1,1 -2,2 0,0 0,0 0,0 0,0 0,0 0,0 1,-1 1,-1 2,-1zm3 -4c0,-1 0,-2 0,-2 -1,0 -1,0 -1,0 0,0 0,0 0,0 1,0 1,1 1,2zm-15 -4c3,-2 6,-3 10,-3 2,1 6,1 7,4 1,3 -1,6 -3,8 -2,2 -5,5 -8,4 -1,0 -1,0 -1,0 -2,-1 -4,-2 -5,-5 0,-2 0,-4 0,-7 0,0 0,-1 0,-1z"/>
   <path class="fil5" d="M154 155c0,0 0,0 0,0 0,-1 0,-1 0,-2 0,0 0,0 0,0 0,-1 0,-1 0,-2 0,-1 1,-1 2,-1 0,0 0,0 0,0 4,0 6,2 9,3 2,1 5,2 6,4 2,1 3,2 4,3 1,1 1,1 1,2 3,3 3,9 -1,13 -4,5 -11,4 -17,4 -2,0 -3,-1 -3,-3 0,-1 1,-2 2,-2 1,0 2,0 2,0 3,1 6,1 8,1 2,0 4,-1 6,-2 3,-2 3,-6 1,-9 0,0 0,0 -1,0 -3,-1 -6,-3 -9,-4 -2,-1 -6,-4 -8,-2 -1,0 -2,0 -2,-2 0,0 0,0 0,0 0,0 0,0 0,-1z"/>
   <path class="fil6" d="M143 183c1,-1 1,-1 1,-1 0,0 0,0 -1,0 0,0 0,0 0,0 -1,1 -1,1 -1,1 1,0 1,0 1,0zm-3 -2c0,0 0,0 0,-1 0,1 0,1 0,1 0,0 0,0 0,0zm0 -13c2,-2 4,-4 6,-6 1,-1 2,-2 4,-3 1,-1 2,-2 3,-2 0,0 0,0 0,0 0,0 0,0 1,0 0,0 0,0 0,1 1,2 0,4 0,6 0,2 0,3 1,5 0,1 0,4 0,5 1,1 0,2 -1,2 0,0 -1,1 -1,1 0,2 -2,3 -3,5 -1,2 -4,3 -6,4 -4,0 -7,-3 -7,-6 -1,-4 0,-8 3,-12z"/>
   <path class="fil7" d="M151 154c0,0 0,0 0,0 0,0 -1,0 -1,0 0,0 0,0 0,0 0,0 0,0 1,0zm-16 20c-1,-1 -1,-2 0,-3 0,-2 0,-3 1,-4 0,0 0,0 0,0 1,-3 2,-4 4,-6 3,-4 7,-8 11,-11 1,0 1,0 1,0 1,-1 2,-1 2,1 0,1 0,2 0,3 0,0 0,0 0,0 0,0 0,0 0,1 1,0 1,1 1,1 0,1 -1,2 -1,2 -1,0 -1,0 -1,0 -1,0 -1,0 -2,1 0,0 0,0 -1,0 0,0 0,0 0,0 -1,1 -3,2 -4,3 -2,2 -4,4 -6,6 -1,1 -1,3 -2,5 -1,3 -1,7 1,10 0,0 1,0 1,0 2,2 6,2 8,0 2,-1 3,-2 4,-3 1,-1 2,-3 2,-4 0,-2 3,-2 3,0 0,0 0,1 0,1 1,1 1,2 0,2 -4,5 -9,10 -16,9 -5,-1 -7,-7 -7,-11 0,-1 1,-2 1,-3z"/>
   <path class="fil5" d="M113 182c0,0 0,-1 1,-2 4,-2 8,-2 13,-1 3,1 6,3 6,6 1,4 -1,7 -3,10 0,1 -2,3 -3,3 0,0 0,0 0,0 0,0 0,0 0,1 0,0 0,0 0,0 0,0 0,0 0,0 -1,0 -1,1 -2,1 0,1 0,1 0,1 -1,0 -2,0 -2,-1 0,0 0,0 0,0 -1,0 -1,0 -1,0 0,0 0,0 -1,0 0,-1 0,-1 0,-1 1,-1 2,-2 3,-2 1,-1 2,-2 3,-3 2,-2 4,-5 4,-8 0,0 0,0 -1,-1 -2,-1 -5,-2 -8,-3 0,0 -1,0 -2,0 0,1 0,2 -1,2 0,0 0,0 -1,0 -1,0 -1,0 -2,0 -1,0 -1,0 -1,0 0,0 -1,0 -1,0 -1,1 -2,-1 -1,-2z"/>
   <path class="fil3" d="M139 148c0,-1 0,-1 0,-1 0,0 1,0 1,0 -1,0 -1,0 -2,0 1,0 1,0 1,1zm4 -2c0,0 0,0 0,-1 0,1 0,1 0,1 0,0 0,0 -1,0 1,0 1,0 1,0zm3 6c0,0 0,0 0,0 0,0 -1,0 -1,0 1,0 1,0 1,0zm3 -6c0,0 0,0 0,0 0,0 0,-1 0,-2 0,0 1,0 1,0 -1,0 -1,0 -1,0 0,1 0,1 0,2zm5 -3c0,0 0,-1 0,-1 0,0 0,0 -1,0 1,0 1,1 1,1zm-20 23c0,0 0,-1 0,-1 0,-1 0,-1 0,-1 -2,-6 0,-12 -1,-18 0,-1 1,-1 2,-1 5,-1 9,-5 15,-4 1,-1 3,-1 5,-2 0,0 1,1 1,1 0,2 0,4 0,6 0,1 0,3 0,4 0,0 -1,0 -1,0 0,0 0,0 0,0 0,1 -1,2 -2,2 0,0 -1,1 -2,1 -2,1 -4,2 -5,3 -3,2 -7,5 -8,8 -1,0 -1,1 -1,1 0,1 -1,2 -1,3 0,0 0,1 0,1 -1,1 -2,1 -2,0 0,-1 0,-1 0,-1 0,0 0,0 0,0 0,0 0,0 0,0 0,0 0,0 0,0 -1,-1 0,-1 0,-1 0,0 0,0 0,-1z"/>
   <path class="fil3" d="M140 194c-1,0 -1,0 -1,0 0,0 0,1 0,1 0,0 0,0 1,-1zm14 -7c0,0 0,0 0,0 1,0 1,0 1,0 0,0 0,-1 0,-1 0,0 0,0 -1,1zm-18 -2c0,0 0,0 0,0 0,0 0,0 0,0 0,0 1,-1 1,0 0,0 0,0 0,1 1,0 2,0 2,1 0,0 0,0 0,0 1,1 2,1 2,1 2,-1 4,-1 5,-2 2,0 4,-1 6,-2 0,0 1,-1 1,-1 1,0 1,-1 2,-1 0,0 0,0 0,0 1,-1 1,-2 1,-2 0,0 1,0 1,-1 0,0 0,0 0,0 0,0 0,0 0,0 1,0 1,0 1,1 0,0 0,1 0,1 1,0 1,1 1,1 0,3 0,5 -2,7 -1,2 -4,3 -6,3 -4,2 -9,4 -12,8 -1,1 -3,0 -3,-2 0,-1 0,-2 0,-4 0,0 0,0 0,-1 0,-1 0,-3 -1,-4 0,-1 1,-3 1,-4z"/>
   <path class="fil3" d="M181 159c0,-1 0,-2 0,-2 0,0 0,0 0,0 0,0 0,0 1,0 0,-1 0,-1 0,-1 0,-1 0,-1 1,-1 0,0 0,0 0,0 0,0 0,0 -1,0 -1,1 -1,2 -1,4 0,0 0,0 0,0zm2 0c0,0 0,0 0,0 0,0 0,0 0,0 -1,0 -1,0 -1,0 1,0 1,0 1,0zm4 5c1,0 1,1 1,1 0,-1 0,-2 -1,-3 0,1 0,1 0,1 0,0 0,1 0,1zm-8 -3c0,-1 0,-1 0,-1 0,-1 1,-2 1,-2 0,-1 0,-2 0,-3 1,-1 1,-1 2,-2 1,-1 3,0 4,1 1,1 2,3 3,4 1,4 2,7 2,10 -1,3 -4,9 -8,8 0,0 0,0 0,0 0,0 0,0 0,0 -1,0 -1,1 -1,1 0,0 -2,0 -2,-1 0,0 0,-1 0,-1 0,-1 0,-1 0,-2 -2,-3 -1,-10 -1,-12z"/>
   <path class="fil3" d="M179 154c-1,-1 0,-3 1,-2 1,0 3,1 5,2 0,0 0,0 -1,0 0,1 -1,1 -2,0 0,1 0,1 0,2 0,1 0,3 -1,4 0,0 0,1 -1,1 0,0 0,0 0,0 -1,0 -1,0 -1,-1 0,0 0,-1 0,-2 0,-1 0,-2 0,-3 0,-1 0,-1 0,-1z"/>
   <path class="fil8" d="M158 143c0,0 0,0 0,0 0,-1 0,-1 0,-1 0,0 0,0 0,0 0,0 0,0 0,0 0,0 0,1 0,1zm0 2c0,0 0,0 0,0 0,-1 0,-1 0,-2 0,0 0,0 0,0 0,1 0,1 0,2zm5 4c-1,0 -1,0 -1,-1 0,0 0,0 -1,0 0,0 -1,0 -1,-1 0,0 0,0 -1,0 0,0 0,0 0,0 1,1 2,2 4,2zm-3 -7c0,1 0,3 0,3 0,0 0,0 0,0 0,1 1,1 1,1 0,0 0,0 0,0 0,0 0,-1 -1,-2 0,0 1,-1 1,-1 0,0 -1,0 -1,-1zm7 5c0,0 0,0 0,-1 -1,0 -1,0 -1,0 0,0 1,1 1,1zm5 4c0,0 0,0 0,0 0,0 1,0 1,0 0,0 0,0 0,0 0,0 -1,-1 -1,-1 0,0 0,0 0,1zm3 2c1,0 1,1 1,1 0,0 0,0 0,0 0,0 0,-1 -1,-1 0,0 0,0 0,0zm2 7c0,0 0,-1 0,-1 0,0 0,0 -1,0 1,0 1,1 1,1zm-21 -12c0,0 0,0 0,0 0,0 0,-1 0,-1 0,-1 0,-2 -1,-3 0,-1 0,-3 0,-4 0,0 1,-1 1,-1 1,0 1,0 1,0 3,1 6,2 8,4 3,1 5,3 6,4 1,0 2,1 3,1 1,1 2,1 3,2 1,0 2,1 3,2 0,0 0,1 0,1 0,0 0,0 0,0 0,0 0,0 0,0 0,0 0,1 0,1 0,0 0,0 0,0 0,1 0,2 0,2 0,1 0,1 -1,1 0,0 0,0 0,1 0,0 0,0 0,0 0,1 0,3 0,4 0,1 0,1 0,1 0,1 0,1 0,2 -1,0 -1,0 -1,0 -1,-1 -1,-2 -1,-2 0,0 0,0 0,0 -2,-2 -5,-4 -7,-6 -2,-2 -5,-4 -8,-5 -1,-1 -3,-1 -3,-2 -1,0 -1,0 -1,0 -1,1 -1,1 -2,0 -1,0 -1,-2 0,-2z"/>
   <path class="fil8" d="M161 181c0,1 1,1 1,2 0,-1 0,-1 0,-2 0,0 0,0 0,0 0,0 0,0 -1,0 0,0 0,0 0,0zm7 2c0,0 0,0 0,0 0,0 -1,0 -1,0 0,0 -1,0 -1,0 0,0 0,1 -1,1 -1,0 -1,0 -2,-1 0,1 0,1 0,1 2,0 4,0 5,-1zm9 -5c0,0 0,0 0,0 0,0 0,-1 0,-1 0,1 -1,1 -1,1 0,0 1,0 1,0zm0 1c0,0 0,0 0,0 0,0 0,0 0,0 0,0 0,0 0,0zm-5 1c0,0 0,0 0,0 0,0 0,0 1,0 -1,0 -1,0 -1,0zm-2 1c0,0 -1,0 -1,1 1,0 1,0 1,-1 0,0 0,0 0,0 0,0 1,-1 0,0zm-6 0c1,1 1,0 1,0 0,0 -1,0 -1,0zm-5 -3c6,0 15,2 18,-5 0,-1 1,-1 1,-1 0,-2 0,-4 0,-6 0,0 1,0 1,0 0,2 0,4 1,7 0,0 0,0 0,0 0,1 0,2 0,3 1,1 0,2 -1,2 -2,7 -13,8 -19,10 -1,0 -2,-1 -2,-1 0,-1 0,-1 0,-1 0,-2 0,-4 0,-6 -1,-1 0,-2 1,-2z"/>
   <path class="fil8" d="M124 170c0,0 0,0 0,0 0,0 0,-1 0,-1 0,1 -1,0 0,0 0,0 0,0 0,-1 -1,1 -1,0 -1,0 0,1 1,2 1,2 0,0 0,0 0,0zm1 -7c0,0 0,0 0,0 0,-1 0,-2 1,-3 -1,0 -1,0 -1,0 0,1 0,1 -1,2 1,0 1,0 1,1zm0 1c0,0 0,0 0,0 0,1 0,1 0,1 0,0 0,0 0,-1zm-2 2c0,0 0,1 0,2 0,0 0,0 0,0 0,0 0,0 0,0 0,-1 0,-1 0,-1 0,0 0,0 0,-1 0,-1 0,-2 1,-3 -1,1 -1,2 -1,3zm4 -11c0,0 0,0 1,0 0,-1 0,-1 0,-1 0,0 -1,1 -1,1 0,0 0,0 0,0zm1 21c0,0 0,0 0,1 0,0 1,0 1,0 0,0 0,0 0,-1 0,0 -1,0 -1,-1 0,1 0,1 0,1 0,0 0,0 0,0zm2 -2c0,0 1,1 1,1 0,-1 0,-2 0,-3 0,1 -1,1 -1,0 0,1 0,1 0,2zm0 -23c0,0 0,0 0,1 0,0 0,0 0,1 0,0 0,0 1,0 0,0 0,0 0,0 0,-1 0,-2 0,-3 0,0 -1,1 -1,1zm-1 5c0,1 0,2 -1,3 0,0 0,1 0,1 0,-1 1,-2 1,-3 0,0 0,-1 0,-1 0,0 0,0 0,0zm-15 20c2,-4 6,-3 10,-3 -1,0 -1,0 -1,0 -2,-1 -3,-3 -3,-4 -1,-2 -1,-4 0,-6 1,-2 3,-3 4,-6 0,-2 1,-4 2,-6 2,-2 4,-4 6,-5 1,-2 3,1 1,2 0,0 0,0 0,0 0,1 0,2 0,3 0,2 0,4 0,7 0,4 1,8 0,13 0,0 0,0 0,0 0,1 0,2 0,3 0,0 0,0 0,0 1,2 1,5 1,7 0,0 0,0 0,0 0,0 0,0 0,1 0,0 0,0 0,0 0,0 0,0 0,1 0,0 0,0 0,1 0,0 0,0 0,0 0,1 0,1 -1,1 0,0 0,0 0,-1 0,0 0,0 0,0 0,0 0,1 0,1 0,0 -1,0 -1,0 0,-1 0,-2 0,-2 0,0 0,-1 0,-1 0,0 0,0 0,0 0,0 0,0 0,0 0,-1 0,-1 0,-2 -1,1 -1,1 -2,0 -2,-1 -4,-2 -7,-2 -1,0 -2,0 -3,0 0,0 0,0 -1,0 0,0 0,0 0,0 0,1 -1,1 -2,1 0,1 -1,0 -1,-1 -1,0 -3,-1 -2,-2z"/>
   <path class="fil8" d="M131 200c0,0 0,0 0,0 0,0 0,0 0,0 0,0 0,0 -1,0 0,0 0,0 0,1 0,0 0,0 1,0 0,-1 0,-1 0,-1zm-5 1c0,0 0,0 0,0 0,0 0,-1 0,-1 0,-1 1,-2 2,-2 0,-1 1,-1 1,-1 0,0 0,0 0,0 1,-2 2,-4 2,-5 1,0 1,0 2,0 0,-1 -1,-5 1,-5 0,0 0,0 0,0 0,0 1,1 1,1 0,0 0,0 0,0 0,0 0,0 0,1 0,0 0,0 0,0 0,3 0,5 0,8 0,2 0,4 0,6 0,0 -1,1 -1,1 -1,0 -1,1 -2,1 0,1 0,1 -1,1 0,0 0,0 -1,0 0,-1 -1,-1 -2,-2 0,0 0,0 0,0 0,0 0,0 -1,0 0,-1 -1,-1 -1,-2 -1,0 0,-1 0,-1z"/>
   <path class="fil0" d="M160 138c1,0 2,1 3,1 0,0 0,0 0,0 0,0 -1,-1 -1,-1 -1,0 -2,0 -3,0 0,0 0,0 0,0 1,0 1,0 1,0zm18 8c0,1 0,1 0,1 0,0 0,0 0,0 0,0 0,0 0,-1zm0 -8c-1,0 -1,-1 -2,-1 0,0 0,1 0,1 0,0 1,0 1,0 0,0 0,0 1,0 0,0 0,0 0,0 0,0 0,0 0,0zm-6 -3c0,0 0,1 1,2 0,0 0,0 1,0 0,0 0,-1 0,-1 0,0 0,0 0,0 0,0 0,0 0,0 -1,-1 -1,-1 -2,-1zm-3 -2c0,1 1,1 1,2 0,0 0,-1 1,-1 -1,0 -2,0 -2,-1zm-1 8c0,0 0,0 0,0 0,1 1,1 1,1 0,0 -1,-1 -1,-1zm4 2c0,0 0,0 0,0 0,0 -1,0 -1,0 1,0 1,1 1,1 0,-1 0,-1 0,-1zm4 2c0,0 0,0 0,0 0,0 0,0 -1,0 1,0 1,0 1,1 0,-1 0,-1 0,-1zm-6 -5c0,0 0,-1 0,-2 0,0 0,0 0,0 0,0 -1,0 -1,0 1,1 1,1 1,2zm4 2c0,0 0,0 0,0 0,-1 0,-1 0,-2 0,0 0,0 -1,0 0,1 1,1 1,2zm-10 -2c0,0 1,0 1,0 0,0 0,0 0,0 -1,0 -1,0 -1,0zm-4 -5c0,0 0,-1 0,-1 0,0 0,0 0,0 0,0 0,0 0,0 0,0 0,0 0,1zm-1 -3c0,0 0,0 1,0 0,-1 0,-1 0,-1 0,0 1,0 1,0 0,0 0,0 1,0 0,0 1,0 1,0 0,0 0,0 0,0 -1,0 -3,-1 -4,-2 0,1 0,2 0,3zm-3 -2c0,-1 0,-1 0,-1 0,-1 0,-1 1,-2 0,0 0,0 0,0 0,-1 1,-1 1,-1 4,3 8,4 11,5 4,1 7,3 10,6 1,0 1,1 1,1 0,0 0,0 0,0 0,1 0,2 0,3 0,3 0,7 1,10 0,1 -2,2 -3,1 0,0 0,-1 0,-1 0,0 0,0 -1,0 -5,-5 -14,-5 -19,-11 0,0 0,0 0,0 0,0 0,0 0,0 -1,1 -2,1 -3,-1 0,0 0,0 0,0 0,-3 1,-6 1,-9z"/>
   <path class="fil0" d="M163 195c0,0 0,0 0,0 0,0 0,0 0,0 0,-1 0,-1 0,-1 0,0 -1,0 -1,0 0,0 0,0 0,0 0,1 0,1 0,1 0,0 0,0 1,0zm7 1c0,0 0,0 0,0 0,-1 0,-2 0,-3 0,0 0,0 0,0 0,1 0,2 0,3 0,0 0,0 0,0zm4 2c0,-1 -1,-1 -1,-1 0,0 0,-1 0,-1 0,0 0,-1 0,-1 0,0 0,0 0,0 0,1 -1,1 -1,2 0,0 1,0 2,1zm3 2c0,-1 0,-2 0,-3 0,1 0,2 0,3l0 0zm1 -12c0,0 0,0 0,-1 0,0 0,1 0,1 0,0 0,0 0,0zm0 -6c0,0 0,0 0,0 -1,0 -1,0 -1,1 -1,0 -2,1 -3,1 0,0 0,0 0,0 0,1 0,1 0,1 0,0 0,0 0,0 1,-1 3,-2 3,0 0,0 0,1 0,1 1,0 1,-1 1,-1 0,0 0,0 0,0 0,-1 0,-1 0,-1 -1,0 -1,0 0,0 0,0 0,0 0,-1 0,0 0,0 0,0 0,0 0,-1 0,-1 0,0 0,0 0,0zm-7 4c0,0 0,0 0,0 0,0 1,0 1,-1 0,1 -1,1 -1,1zm-1 3c-1,1 -1,2 -1,2 1,0 1,0 1,0 0,0 0,-1 0,-1 0,-1 0,-1 0,-1zm-4 -1c0,0 0,0 1,1 0,-1 0,-1 0,-2 0,0 -1,1 -1,1zm-1 1c-1,0 -1,1 -1,1 0,0 0,1 0,1 1,-1 1,-1 1,-2 0,0 0,0 0,0zm-2 -1c0,0 0,0 0,0 0,0 0,0 0,0 0,0 0,0 0,0 0,0 0,0 0,0zm-2 1c-1,1 -1,1 -1,1 0,0 1,0 1,0 0,0 0,-1 0,-1 0,0 0,0 0,0 0,0 0,0 0,0zm6 3c0,0 -1,0 -1,0 0,0 0,1 0,2 0,0 0,0 1,-1 0,0 0,-1 0,-1zm-9 -2c0,0 0,0 0,0 0,-1 1,-2 1,-2 2,-2 5,-2 8,-3 2,0 4,-1 6,-2 1,-1 2,-1 4,-2 0,0 1,0 1,0 0,0 0,0 0,0 0,0 0,-1 0,-1 0,-1 1,-1 2,0 0,3 0,7 0,11 0,4 0,8 0,12 0,1 -1,2 -2,1 0,0 0,0 0,0 0,1 -1,1 -2,1 -3,-1 -5,-2 -8,-3 -3,-2 -5,-3 -8,-4 -1,0 -1,-1 -1,-1 0,-2 0,-3 0,-4 0,-1 -1,-2 -1,-3z"/>
   <path class="fil0" d="M112 132c0,0 0,0 0,0 0,0 0,0 0,0 0,0 0,0 0,0zm1 13c0,0 0,0 0,0 0,0 0,-1 0,-1 0,0 0,0 0,0 0,0 0,1 0,1zm0 9c1,-1 1,-2 1,-3 0,0 -1,0 -1,0 0,1 0,2 0,3zm1 -6c0,0 1,-1 1,-1 -1,0 -1,0 -1,0 -1,0 -1,1 -1,2 1,0 1,-1 1,-1zm2 -12c0,-1 0,-1 0,-2 0,0 0,0 0,0 0,0 0,0 0,0 0,1 0,1 0,2zm0 29c0,0 0,-1 0,-1 0,0 0,-1 0,-1 0,1 0,1 0,2 0,0 0,0 0,0zm3 -28c0,0 0,0 0,0 0,0 0,0 0,0 0,-1 0,-1 0,-1 0,0 0,-1 0,-1 0,1 0,1 0,2zm3 15c0,-1 0,-1 0,-2 0,1 0,1 -1,2 1,0 1,0 1,0zm3 -14c0,0 0,0 0,1 1,0 1,0 1,0 0,0 0,0 0,0 0,1 1,1 1,1 0,0 0,0 1,0 0,0 0,0 0,0 0,0 0,0 0,0 -1,-1 -2,-1 -2,-2 0,0 0,0 0,0 -1,0 -1,0 -2,0 1,0 1,0 1,0zm0 11c0,-1 0,-1 1,-2 0,0 0,0 0,0 0,-1 0,-2 0,-3 -1,0 -1,0 -1,0 0,2 0,3 0,5 0,0 0,0 0,0zm4 -9c0,0 0,0 0,0 0,0 0,1 0,1 0,0 0,0 0,0 0,1 0,1 1,1 0,0 0,0 0,0 0,0 0,-1 0,-2 0,0 -1,0 -1,0zm-2 3c0,0 0,0 0,1 0,0 0,0 0,0 0,-1 0,-1 0,-1 0,-1 0,-1 0,-1 0,0 0,0 0,1zm-17 3c0,-6 -1,-12 -1,-18 0,-1 1,-2 2,-1 1,0 1,1 2,1 1,1 3,2 5,3 0,1 0,1 0,1 0,0 0,0 1,1 0,-1 0,-1 1,-1 1,1 1,1 1,1 2,1 3,1 4,2 1,1 3,1 4,2 1,0 2,0 3,1 0,0 0,1 0,1 0,0 0,0 0,1 0,1 0,2 0,3 1,0 1,0 1,0 0,0 0,0 0,0 0,0 0,1 0,1 0,2 -1,3 -3,5 -2,2 -4,4 -6,7 -1,1 -2,2 -3,4 0,1 0,2 -1,3 0,0 0,1 0,1 -1,2 0,3 1,4 0,2 1,3 1,5 -1,0 -1,1 -2,1 -2,0 -3,1 -4,1 0,1 0,3 0,4 0,1 -2,2 -2,1 -1,0 -2,-1 -2,-2 0,0 0,-1 0,-2 0,0 0,-1 0,-1 0,0 0,0 0,0 0,0 -1,-1 -2,-2 -2,-3 0,-7 0,-10 0,-6 0,-12 0,-17z"/>
   <path class="fil0" d="M133 205c0,-1 0,-1 1,-1 0,0 1,0 1,1 0,0 0,0 0,1 0,0 0,0 0,1 0,0 -1,1 -1,0 -1,0 -1,0 -1,-1 -1,0 -1,-1 0,-1z"/>
   <path class="fil9" d="M145 136c0,0 -1,0 -1,0 -1,0 -1,0 -2,1 0,0 0,0 0,0 1,0 2,-1 3,-1zm-11 6c0,0 0,0 0,0 0,0 0,0 0,-1 -1,0 -1,-1 -1,-2 2,-1 3,-1 5,-3 1,-1 3,-2 5,-3 1,0 2,0 3,-1 1,0 1,-1 2,-1 2,-1 3,-2 5,-2 1,0 1,0 1,0 1,0 2,1 2,2 0,1 0,3 0,5 0,0 -1,1 -1,1 0,0 0,0 0,1 1,1 0,2 -2,2 -3,-2 -6,0 -9,1 -2,1 -4,1 -6,2 0,0 0,0 0,0 -1,1 -2,2 -3,2 -2,0 -3,-2 -1,-3z"/>
   <path class="fil9" d="M136 204c0,0 0,0 0,0 0,0 0,0 0,0 0,0 0,0 0,0 0,-1 0,-1 1,-1 0,0 0,0 0,0 -1,0 -2,-2 -1,-2 2,-1 3,-2 5,-2 1,-1 3,-2 4,-3 1,0 1,-1 2,-1 1,0 1,0 2,-1 1,-1 3,-2 5,-2 1,0 2,-1 3,-2 1,0 2,1 1,2 0,0 0,0 0,0 1,0 2,1 2,2 -1,1 -1,2 -1,3 -1,1 -1,1 -2,1 0,0 -1,1 -1,2 -1,1 -3,0 -3,-1 0,0 0,0 0,0 -2,1 -5,2 -8,3 -2,2 -5,4 -8,5 0,0 -1,0 -1,-1 -1,-1 -1,-2 0,-2z"/>
   <path class="fil9" d="M186 198c0,0 1,0 1,0 0,-1 0,-1 0,-1 0,-1 -1,-1 -1,-1 0,0 0,0 0,0 0,0 0,0 0,0 0,0 0,1 0,1 -1,0 -1,0 -1,0 0,1 0,1 0,2 0,0 0,0 0,0 0,0 0,0 0,0 0,0 1,-1 1,-1zm-1 -13c0,1 -1,2 -1,2 0,1 0,2 0,2 0,1 1,1 1,2 0,0 0,0 0,0 0,0 0,0 0,0 0,-2 0,-4 0,-6zm-1 -4c-1,1 -1,1 -1,1 0,0 0,0 0,1 0,0 0,0 0,0 1,-1 1,-2 1,-2 0,0 0,0 0,0zm5 16c0,-1 1,-1 1,-1 0,0 0,0 -1,-1 0,0 0,0 0,-1 0,0 0,0 0,1 0,0 0,1 0,2 0,0 0,0 0,0zm2 -43c0,0 0,0 0,0 0,0 -1,-1 -1,-2 0,1 0,1 -1,1 1,1 1,1 2,2 0,0 0,0 0,-1zm0 2c1,1 1,1 1,2 0,0 0,0 1,0 -1,0 -1,-1 -1,-2 0,0 0,0 -1,0 0,0 0,0 0,0zm5 38c0,0 1,0 1,-1 -1,1 -1,0 -2,0 0,1 -1,1 -1,1 -1,0 -1,0 -2,0 0,1 0,1 0,2 1,-1 2,-1 4,-2zm0 -37c0,0 0,0 0,1 0,-1 0,-1 0,-1 0,0 0,0 0,0zm-3 26c0,0 0,-1 1,-1 0,0 0,0 0,0 0,0 0,0 0,-1 0,0 0,0 0,-1 -1,-3 0,-7 -1,-10 0,0 0,1 0,2 0,0 0,0 0,0 0,1 0,1 0,2 0,3 0,6 0,9zm0 10c0,0 0,0 0,-1 0,0 0,0 0,0 0,0 0,0 0,1zm1 -8c0,0 0,0 0,0 -1,0 -1,0 -1,0 0,0 0,0 0,0 0,1 0,1 -1,2 0,0 0,0 0,0 0,0 1,1 1,1 0,-1 0,-2 1,-3zm0 -24c-1,0 -1,0 -2,0 0,0 0,1 0,1 1,0 2,0 2,0 0,1 1,1 1,1 0,0 0,-1 0,-1 -1,0 -1,0 -1,-1zm1 -25c0,1 0,1 0,2 0,0 0,0 0,0 0,-1 0,-1 0,-2zm-1 4c0,2 0,3 0,5 0,0 0,1 0,2 0,0 0,0 1,0 0,0 0,-1 0,-2 0,-1 0,-1 0,-2 0,0 0,-1 0,-2 0,-1 -1,-1 -1,-1zm4 46c0,0 0,0 0,-1 0,0 0,0 -1,0 0,0 0,0 0,0 0,1 1,1 1,1zm-9 -48c-1,0 -1,1 -1,1 0,0 0,0 1,0 0,0 0,0 0,0 0,0 0,-1 0,-1 0,0 0,0 0,0zm-1 9c0,1 0,2 0,2 1,0 1,0 1,-1 0,0 0,-1 -1,-2 0,0 0,0 0,0 0,0 0,0 0,0 0,0 0,0 0,1 0,0 0,0 0,0 0,0 0,0 0,0zm-3 -5c0,0 0,0 0,0 0,-1 0,-1 0,-1 0,0 0,0 0,1zm-5 45c0,0 1,0 1,0 0,-1 0,-2 1,-3 0,0 0,0 0,0 0,-1 0,-1 -1,-2 0,0 0,0 1,-1 -1,0 -2,0 -2,-2 0,-1 1,-2 2,-2 0,-1 1,-1 1,-1 2,-2 4,-5 6,-8 0,0 0,0 0,0 0,-1 0,-2 0,-3 0,-1 0,-2 0,-3 0,0 0,0 0,0 0,-1 0,-2 0,-3 -1,-1 -1,-2 -2,-3 0,0 0,0 0,0 -2,-1 -5,-3 -5,-5 -1,-1 -1,-1 -1,-1 0,0 0,0 0,-1 0,0 0,0 0,-1 0,0 -1,0 -1,-1 0,-2 0,-4 0,-7 0,-1 1,-3 2,-4 0,0 0,0 1,0 0,0 0,-1 0,-1 3,-2 8,-7 11,-6 1,0 1,0 2,0 0,0 0,0 0,0 0,0 0,0 0,0 0,-1 2,-1 2,0 1,3 1,7 1,10 -1,2 0,4 -1,6 0,1 0,1 0,2 0,3 1,7 0,11 1,5 1,10 0,14 0,0 1,0 1,1 1,3 1,7 1,11 0,4 1,8 1,12 0,0 -1,1 -1,1 -5,0 -8,2 -12,3 -2,1 -3,2 -5,4 0,0 -2,0 -2,-1 0,-5 -1,-10 0,-15 0,0 -1,0 -1,-1z"/>
   <path class="fil1" d="M121 186c1,0 2,-1 2,-1 1,-1 1,-2 1,-2 0,0 -1,0 -1,0 -1,-1 -2,-2 -3,-1 -1,1 0,3 1,4zm-2 -5c1,-2 4,-2 5,0 3,1 0,9 -4,6 -2,-1 -3,-4 -1,-6z"/>
   <path class="fil1" d="M160 164c1,2 3,2 5,1 0,0 1,-1 1,-2 0,-1 -1,-2 -1,-2 0,0 -1,0 -1,0 -1,-1 -2,-2 -3,-1 -2,1 -2,3 -1,4zm0 -6c1,-1 4,-1 5,1 0,0 0,0 1,0 1,1 1,1 2,2 0,1 0,1 0,2 0,2 -1,3 -2,4 -3,2 -6,1 -8,-2 -2,-2 -1,-5 2,-7z"/>
   <path class="fil1" d="M163 161c2,0 2,4 0,4 -2,0 -3,-4 0,-4z"/>
   <path class="fil1" d="M152 157c0,-1 1,0 2,0 1,0 2,1 3,1 0,1 0,1 0,1 -1,0 -2,0 -3,0 -1,0 -3,-1 -2,-2z"/>
   <path class="fil1" d="M144 156c0,0 1,0 2,0 1,0 2,0 2,0 1,0 1,1 0,1 -1,0 -1,0 -2,0 -1,0 -2,0 -2,0 -1,0 -1,-1 0,-1z"/>
   <path class="fil1" d="M135 158c0,0 1,0 1,0 0,0 1,-1 1,-1 1,0 2,0 3,0 1,1 1,1 0,1 0,0 -1,1 -2,1 0,0 -1,0 -2,0 0,0 -1,0 -1,0 0,0 0,0 0,-1z"/>
   <path class="fil1" d="M129 161c1,0 2,-1 3,-1 1,0 1,0 1,1 -1,1 -2,1 -3,2 0,0 -1,1 -2,0 0,0 1,-1 1,-2z"/>
   <path class="fil1" d="M124 167c0,-1 0,-1 1,-1 0,0 0,0 1,0 0,-1 0,0 0,0 0,0 0,1 0,1 0,0 -1,1 -1,1 -1,0 -1,2 -2,1 -1,-1 0,-2 1,-2z"/>
   <path class="fil1" d="M119 175c1,0 1,-1 1,-2 0,0 1,-1 1,-1 1,-1 1,-1 1,0 0,1 0,1 0,2 0,1 0,1 -1,2 0,1 -2,0 -2,-1z"/>
   <path class="fil1" d="M83 117c2,8 4,16 8,23 2,4 6,6 9,9 3,2 6,3 8,5 3,2 5,4 8,4 3,1 4,-2 4,-4 -1,-4 -11,-7 -15,-9 -3,-2 -7,-5 -9,-8 -5,-6 -6,-13 -9,-20 -1,-2 -4,-1 -4,0z"/>
  </g>
 </g>
</svg>
