<?xml version="1.0" encoding="UTF-8"?>
<!DOCTYPE svg PUBLIC "-//W3C//DTD SVG 1.1//EN" "http://www.w3.org/Graphics/SVG/1.1/DTD/svg11.dtd">
<!-- Creator: CorelDRAW X7 -->
<svg xmlns="http://www.w3.org/2000/svg" xml:space="preserve" width="150px" height="150px" version="1.1" style="shape-rendering:geometricPrecision; text-rendering:geometricPrecision; image-rendering:optimizeQuality; fill-rule:evenodd; clip-rule:evenodd"
viewBox="0 0 150 150"
 xmlns:xlink="http://www.w3.org/1999/xlink">
 <defs>
  <style type="text/css">
   <![CDATA[
    .str0 {stroke:#D2E28B;stroke-width:6.24921}
    .fil0 {fill:none}
    .fil1 {fill:none;fill-rule:nonzero}
    .fil2 {fill:#D2E28B;fill-rule:nonzero}
   ]]>
  </style>
 </defs>
 <g id="Layer_x0020_1">
  <metadata id="CorelCorpID_0Corel-Layer"/>
  <polygon class="fil0 str0" points="19,101 55,101 73,80 55,60 "/>
  <path class="fil1 str0" d="M55 117l73 0 -36 -41 -37 41zm37 0m18 -21m-36 0"/>
  <path class="fil2" d="M122 23c5,0 10,2 13,6 4,3 6,8 6,13 0,5 -2,10 -6,14 -3,3 -8,5 -13,5 -5,0 -10,-2 -13,-5 -4,-4 -6,-9 -6,-14 0,-5 2,-10 6,-13 3,-4 8,-6 13,-6zm9 10c-2,-3 -5,-4 -9,-4 -4,0 -7,1 -9,4 -3,2 -4,5 -4,9 0,4 1,7 4,9 2,3 5,4 9,4 4,0 7,-1 9,-3 3,-3 4,-6 4,-10 0,-3 -1,-7 -4,-9z"/>
 </g>
</svg>
