<?xml version="1.0" encoding="UTF-8"?>
<!DOCTYPE svg PUBLIC "-//W3C//DTD SVG 1.1//EN" "http://www.w3.org/Graphics/SVG/1.1/DTD/svg11.dtd">
<!-- Creator: CorelDRAW X7 -->
<svg xmlns="http://www.w3.org/2000/svg" xml:space="preserve" width="200px" height="147px" version="1.1" style="shape-rendering:geometricPrecision; text-rendering:geometricPrecision; image-rendering:optimizeQuality; fill-rule:evenodd; clip-rule:evenodd"
viewBox="0 0 714 528"
 xmlns:xlink="http://www.w3.org/1999/xlink">
 <defs>
  <style type="text/css">
   <![CDATA[
    .fil0 {fill:#6CBE4F}
    .fil2 {fill:#FEFEFE;fill-rule:nonzero}
    .fil1 {fill:#A2CB5A;fill-rule:nonzero}
   ]]>
  </style>
 </defs>
 <g id="Layer_x0020_1">
  <metadata id="CorelCorpID_0Corel-Layer"/>
  <path class="fil0" d="M81 470l435 0c44,0 81,-36 81,-81l0 -261c0,-45 -37,-81 -81,-81l-251 0 -30 -42c-3,-3 -7,-5 -11,-5l-143 0c-45,0 -81,36 -81,81l0 308c0,45 36,81 81,81z"/>
  <g id="_549926936">
   <path class="fil1" d="M482 518l131 0 0 -92 91 0 0 -131 -91 0 0 -91 -131 0 0 91 -92 0 0 131 92 0 0 92zm65 0m66 -46m46 -46m45 -65m-45 -66m-46 -46m-66 -45m-65 45m-46 46m-46 66m46 65m46 46"/>
   <path class="fil2" d="M492 508l111 0 0 -92 92 0 0 -111 -92 0 0 -92 -111 0 0 92 -92 0 0 111 92 0 0 92zm121 20l-141 0 0 -92 -92 0 0 -150 92 0 0 -92 150 0 0 92 92 0 0 150 -92 0 0 92 -9 0z"/>
  </g>
 </g>
</svg>
