<?xml version="1.0" encoding="UTF-8"?>
<!DOCTYPE svg PUBLIC "-//W3C//DTD SVG 1.1//EN" "http://www.w3.org/Graphics/SVG/1.1/DTD/svg11.dtd">
<!-- Creator: CorelDRAW X7 -->
<svg xmlns="http://www.w3.org/2000/svg" xml:space="preserve" width="150px" height="150px" version="1.1" style="shape-rendering:geometricPrecision; text-rendering:geometricPrecision; image-rendering:optimizeQuality; fill-rule:evenodd; clip-rule:evenodd"
viewBox="0 0 150 150"
 xmlns:xlink="http://www.w3.org/1999/xlink"
 enable-background="new 0 0 512 512"
 xmlns:cc="http://creativecommons.org/ns#"
 xmlns:dc="http://purl.org/dc/elements/1.1/"
 xmlns:inkscape="http://www.inkscape.org/namespaces/inkscape"
 xmlns:rdf="http://www.w3.org/1999/02/22-rdf-syntax-ns#"
 xmlns:sodipodi="http://sodipodi.sourceforge.net/DTD/sodipodi-0.dtd"
 xmlns:svg="http://www.w3.org/2000/svg">
 <defs>
  <style type="text/css">
   <![CDATA[
    .str0 {stroke:#D2E28B;stroke-width:8.33268}
    .fil0 {fill:none;fill-rule:nonzero}
    .fil1 {fill:#D2E28B;fill-rule:nonzero}
   ]]>
  </style>
 </defs>
 <g id="Layer_x0020_1">
  <metadata id="CorelCorpID_0Corel-Layer"/>
  <g id="_2913854170608">
   <path class="fil0 str0" d="M75 46c7,0 14,3 19,7 5,5 9,11 10,19 1,7 -2,14 -6,20 -4,6 -10,10 -17,11 -1,0 -2,1 -3,1 -8,1 -15,-2 -21,-6 -6,-5 -10,-12 -11,-20 -1,-8 2,-15 6,-21 5,-6 12,-10 20,-11 0,0 1,0 1,0 1,0 1,0 2,0z"/>
   <path class="fil1" d="M16 77c0,0 0,0 0,0l0 0 0 0z"/>
   <path class="fil1" d="M135 77c0,0 0,0 0,0l0 0 0 0z"/>
   <path class="fil0 str0" d="M73 15l-1 0 -1 0c-1,0 -2,1 -3,1l-1 0c-1,0 -2,1 -2,1 -1,0 -1,1 -2,1 0,1 0,1 -1,2 0,1 0,1 0,2 0,1 0,3 0,4l0 2 -1 0c-1,1 -1,1 -2,1 -1,1 -2,1 -3,1 -1,1 -1,1 -2,1 -1,1 -1,1 -2,1l-1 1 -4 -5c-1,0 -1,-1 -2,-1 0,0 -1,0 -2,0 0,0 -1,0 -2,0 0,0 -1,0 -2,0 0,1 -1,1 -1,2 -1,0 -2,0 -2,1 -1,0 -1,1 -2,1 0,0 -1,1 -1,1l0 1 -2 1 0 1 -1 1 -1 1c-1,1 -1,1 -2,2 0,1 0,1 0,2 0,1 0,1 0,2 0,1 0,1 0,2 0,1 1,1 1,2l1 0 0 0 4 4 -1 1c0,1 0,1 -1,2 0,1 -1,2 -1,3 0,0 -1,1 -1,2 0,1 0,1 -1,2l0 1 -1 0 -1 0c-1,0 -3,0 -4,0l0 0c-1,0 -1,0 -2,0 -1,1 -1,1 -2,1 0,1 -1,1 -1,2 0,0 -1,1 -1,2 0,0 0,1 0,2 0,0 -1,1 -1,2 0,0 0,1 0,2 0,0 0,1 0,2l0 0 0 0c0,1 0,1 0,2l0 1 0 1 1 1 0 2 0 2 0 0c0,0 1,1 1,1 0,1 1,1 1,2 1,0 1,0 2,1 1,0 1,0 2,0l0 0c1,0 3,0 4,0l1 0 1 0 0 1c1,1 1,1 1,2 0,1 1,2 1,2 0,1 1,2 1,3 1,1 1,1 1,2l1 1 -5 4c0,1 -1,1 -1,2 0,0 0,1 0,2 0,0 0,1 0,2 0,0 0,1 0,2 1,0 1,1 2,1 0,1 0,1 1,2 0,0 1,1 1,2 0,0 1,1 1,1 1,1 1,1 2,2l1 0 1 1 1 1c1,0 1,1 2,1 1,1 1,1 2,1 1,0 1,0 2,0 1,0 1,0 2,0 1,0 1,-1 2,-1 1,-1 2,-2 3,-3l1 -2 1 1c1,0 1,0 2,1 1,0 2,1 2,1 1,0 2,0 3,1 1,0 1,0 2,1l1 0 0 6c0,1 0,1 0,2 1,1 1,1 1,2 1,0 1,1 2,1 0,0 1,1 2,1l0 0c0,0 1,0 2,0 0,0 1,0 2,1 0,0 1,0 2,0 0,0 1,0 2,0l0 0c0,0 0,0 0,0l0 0 2 0 1 0 1 0c1,-1 2,-1 3,-1l1 0c1,0 2,-1 2,-1 1,0 1,-1 2,-1 0,-1 0,-1 1,-2 0,-1 0,-1 0,-2l0 0c0,0 0,0 0,-1l0 0 0 -5c0,0 1,0 1,-1 1,0 2,0 2,0 1,-1 2,-1 3,-1 1,-1 1,-1 2,-1 1,-1 1,-1 2,-1l1 -1 2 2c0,1 1,2 2,3l0 0c1,0 1,1 2,1 0,0 1,0 2,0 0,0 1,0 2,0 0,0 1,0 2,-1 0,0 1,0 1,-1 1,0 1,0 2,-1 1,0 1,-1 2,-1 0,-1 1,-1 1,-1l0 0c0,-1 1,-1 1,-1l1 -1 0 -1 1 -1 1 -1c0,-1 1,-1 2,-2 0,-1 0,-1 0,-2 0,-1 0,-1 0,-2 0,-1 0,-1 0,-2 0,-1 -1,-1 -1,-2 -1,-1 -2,-1 -3,-2l-2 -2 1 -1c0,-1 0,-1 1,-2 0,-1 1,-2 1,-2 0,-1 0,-2 1,-3 0,-1 0,-1 1,-2l0 -1 1 0 1 0c1,0 3,0 4,0l0 0c1,0 1,0 2,0 1,-1 1,-1 2,-1 0,-1 1,-1 1,-2 0,0 1,-1 1,-2 0,0 0,-1 0,-2 0,0 0,-1 1,-2 0,0 0,-1 0,-2 0,0 0,-1 0,-2l0 0 0 0 0 0 0 -2 0 -1 0 -1 -1 -2c0,0 0,-1 0,-2 0,-1 -1,-2 -1,-2 0,-1 -1,-1 -1,-2 -1,0 -1,0 -2,-1 -1,0 -1,0 -2,0l0 0c-1,0 -3,0 -4,0l-1 0 -1 0 0 -1c-1,-1 -1,-1 -1,-2 -1,-1 -1,-2 -1,-2 0,-1 -1,-2 -1,-3 -1,-1 -1,-1 -1,-2l-1 -1 1 -1c1,0 3,-3 3,-3l1 0c0,-1 1,-1 1,-2 0,0 0,-1 0,-2 0,0 0,-1 0,-2 0,0 0,-1 0,-2 -1,0 -1,-1 -2,-1 0,-1 0,-2 -1,-2 0,-1 -1,-1 -1,-2 -1,0 -1,-1 -1,-1 -1,-1 -1,-1 -2,-2l-1 0 -1 -1 -1 -1 -1 -1 -1 -1c-1,0 -1,0 -2,0 -1,0 -1,0 -2,0 -1,0 -1,0 -2,0 -1,0 -1,1 -2,1 0,1 -1,2 -2,3l-2 2c0,0 -1,-1 -1,-1 -1,0 -1,-1 -2,-1 -1,0 -2,-1 -3,-1 0,0 -1,-1 -2,-1 -1,0 -1,0 -2,-1l-1 0 0 -6c0,-1 0,-1 0,-2 -1,-1 -1,-1 -1,-2 -1,0 -1,-1 -2,-1 0,0 -1,-1 -2,-1 0,0 -1,0 -2,0 0,0 -1,-1 -2,-1 0,0 -1,0 -2,0 0,0 -1,0 -1,0 -1,0 -2,0 -3,0z"/>
  </g>
 </g>
</svg>
