<?xml version="1.0" encoding="UTF-8"?>
<!DOCTYPE svg PUBLIC "-//W3C//DTD SVG 1.1//EN" "http://www.w3.org/Graphics/SVG/1.1/DTD/svg11.dtd">
<!-- Creator: CorelDRAW X7 -->
<svg xmlns="http://www.w3.org/2000/svg" xml:space="preserve" width="0.141303in" height="0.136291in" version="1.1" style="shape-rendering:geometricPrecision; text-rendering:geometricPrecision; image-rendering:optimizeQuality; fill-rule:evenodd; clip-rule:evenodd"
viewBox="0 0 421 406"
 xmlns:xlink="http://www.w3.org/1999/xlink">
 <defs>
  <style type="text/css">
   <![CDATA[
    .fil0 {fill:none}
    .fil1 {fill:#373435;fill-rule:nonzero}
   ]]>
  </style>
 </defs>
 <g id="Layer_x0020_1">
  <metadata id="CorelCorpID_0Corel-Layer"/>
  <g id="_148136808">
   <line class="fil0" x1="0" y1="16" x2="272" y2= "16" />
   <polygon class="fil1" points="0,0 272,0 272,31 0,31 "/>
   <line class="fil0" x1="0" y1="109" x2="421" y2= "109" />
   <polygon class="fil1" points="0,94 421,94 421,125 0,125 "/>
   <line class="fil0" x1="0" y1="203" x2="272" y2= "203" />
   <polygon class="fil1" points="0,188 272,188 272,219 0,219 "/>
   <line class="fil0" x1="0" y1="297" x2="421" y2= "297" />
   <polygon class="fil1" points="0,281 421,281 421,312 0,312 "/>
   <line class="fil0" x1="0" y1="391" x2="272" y2= "391" />
   <polygon class="fil1" points="0,375 272,375 272,406 0,406 "/>
  </g>
 </g>
</svg>
