<?xml version="1.0" encoding="UTF-8"?>
<!DOCTYPE svg PUBLIC "-//W3C//DTD SVG 1.1//EN" "http://www.w3.org/Graphics/SVG/1.1/DTD/svg11.dtd">
<!-- Creator: CorelDRAW X7 -->
<svg xmlns="http://www.w3.org/2000/svg" xml:space="preserve" width="0.141913in" height="0.116524in" version="1.1" style="shape-rendering:geometricPrecision; text-rendering:geometricPrecision; image-rendering:optimizeQuality; fill-rule:evenodd; clip-rule:evenodd"
viewBox="0 0 987 811"
 xmlns:xlink="http://www.w3.org/1999/xlink">
 <defs>
  <style type="text/css">
   <![CDATA[
    .fil0 {fill:#727376;fill-rule:nonzero}
    .fil1 {fill:#373435;fill-rule:nonzero}
   ]]>
  </style>
 </defs>
 <g id="Layer_x0020_1">
  <metadata id="CorelCorpID_0Corel-Layer"/>
  <g id="_554025072">
   <path class="fil0" d="M882 235l-130 -130c-5,-5 -13,-8 -21,-8 -8,0 -16,3 -22,8l-269 270c-6,6 -9,14 -9,22 0,8 3,15 9,21l129 130c6,6 13,8 21,8 8,0 16,-3 22,-8l270 -270c6,-6 9,-14 9,-22 0,-8 -3,-15 -9,-21zm-61 -198l129 129c25,25 37,58 37,90 0,33 -12,66 -37,90l-270 270c-24,25 -57,37 -90,37 -32,0 -65,-12 -89,-37l-130 -129c-25,-25 -37,-58 -37,-90 0,-33 12,-65 37,-90l270 -270c25,-25 57,-37 90,-37 32,0 65,12 90,37z"/>
   <path class="fil1" d="M548 392l-130 -129c-6,-6 -13,-9 -21,-9 -8,0 -16,3 -22,9l-270 270c-5,5 -8,13 -8,21 0,8 3,16 8,22l130 129c6,6 13,9 21,9 8,0 16,-3 22,-9l270 -270c6,-5 8,-13 8,-21 0,-8 -2,-16 -8,-22zm-61 -197l129 129c25,25 37,57 37,90 0,32 -12,65 -37,90l-270 269c-25,25 -57,38 -90,38 -32,0 -65,-13 -89,-38l-130 -129c-25,-25 -37,-57 -37,-90 0,-32 12,-65 37,-90l270 -269c25,-25 57,-38 90,-38 32,0 65,13 90,38z"/>
  </g>
 </g>
</svg>
