<?xml version="1.0" encoding="UTF-8"?>
<!DOCTYPE svg PUBLIC "-//W3C//DTD SVG 1.1//EN" "http://www.w3.org/Graphics/SVG/1.1/DTD/svg11.dtd">
<!-- Creator: CorelDRAW X7 -->
<svg xmlns="http://www.w3.org/2000/svg" xml:space="preserve" width="0.0645354in" height="0.0859016in" version="1.1" style="shape-rendering:geometricPrecision; text-rendering:geometricPrecision; image-rendering:optimizeQuality; fill-rule:evenodd; clip-rule:evenodd"
viewBox="0 0 2997 3990"
 xmlns:xlink="http://www.w3.org/1999/xlink">
 <defs>
  <style type="text/css">
   <![CDATA[
    .fil0 {fill:#373435;fill-rule:nonzero}
   ]]>
  </style>
 </defs>
 <g id="Layer_x0020_1">
  <metadata id="CorelCorpID_0Corel-Layer"/>
  <path class="fil0" d="M0 3990l0 -3990 1453 0c446,0 787,82 1027,245 239,162 359,393 359,689 0,216 -73,404 -219,566 -146,161 -331,273 -558,336l0 11c284,35 511,141 681,315 169,174 254,386 254,637 0,366 -131,655 -392,870 -262,214 -619,321 -1071,321l-1534 0zm899 -3328l0 946 395 0c186,0 332,-45 438,-135 108,-90 161,-214 161,-371 0,-294 -219,-440 -657,-440l-337 0zm0 1614l0 1052 488 0c207,0 370,-49 488,-145 118,-96 177,-228 177,-395 0,-160 -58,-284 -174,-376 -117,-91 -279,-136 -487,-136l-492 0z"/>
 </g>
</svg>
