<?xml version="1.0" encoding="UTF-8"?>
<!DOCTYPE svg PUBLIC "-//W3C//DTD SVG 1.1//EN" "http://www.w3.org/Graphics/SVG/1.1/DTD/svg11.dtd">
<!-- Creator: CorelDRAW X7 -->
<svg xmlns="http://www.w3.org/2000/svg" xml:space="preserve" width="45px" height="43px" version="1.1" style="shape-rendering:geometricPrecision; text-rendering:geometricPrecision; image-rendering:optimizeQuality; fill-rule:evenodd; clip-rule:evenodd"
viewBox="0 0 559 539"
 xmlns:xlink="http://www.w3.org/1999/xlink">
 <defs>
  <style type="text/css">
   <![CDATA[
    .fil1 {fill:#96989A}
    .fil2 {fill:#4B4B4D}
    .fil3 {fill:#373435}
    .fil0 {fill:#373435;fill-rule:nonzero}
   ]]>
  </style>
 </defs>
 <g id="Layer_x0020_1">
  <metadata id="CorelCorpID_0Corel-Layer"/>
  <g id="_610521192">
   <polygon class="fil0" points="0,41 559,41 559,0 0,0 "/>
   <polygon class="fil0" points="454,165 559,165 559,123 454,123 "/>
   <polygon class="fil0" points="454,290 559,290 559,249 454,249 "/>
   <polygon class="fil0" points="454,415 559,415 559,374 454,374 "/>
   <polygon class="fil0" points="0,539 559,539 559,498 0,498 "/>
   <polygon class="fil0" points="0,166 106,166 106,125 0,125 "/>
   <polygon class="fil0" points="0,290 106,290 106,249 0,249 "/>
   <polygon class="fil0" points="0,415 106,415 106,374 0,374 "/>
   <g>
    <circle class="fil1" cx="405" cy="200" r="32"/>
    <polygon class="fil2" points="88,334 226,334 291,270 221,201 "/>
    <polygon class="fil3" points="225,363 444,363 335,253 "/>
   </g>
  </g>
 </g>
</svg>
