<?xml version="1.0" encoding="UTF-8"?>
<!DOCTYPE svg PUBLIC "-//W3C//DTD SVG 1.1//EN" "http://www.w3.org/Graphics/SVG/1.1/DTD/svg11.dtd">
<!-- Creator: CorelDRAW X7 -->
<svg xmlns="http://www.w3.org/2000/svg" xml:space="preserve" width="200px" height="170px" version="1.1" style="shape-rendering:geometricPrecision; text-rendering:geometricPrecision; image-rendering:optimizeQuality; fill-rule:evenodd; clip-rule:evenodd"
viewBox="0 0 634 540"
 xmlns:xlink="http://www.w3.org/1999/xlink">
 <defs>
  <style type="text/css">
   <![CDATA[
    .fil2 {fill:#FEFEFE;fill-rule:nonzero}
    .fil1 {fill:#A2CB5A;fill-rule:nonzero}
    .fil0 {fill:#6CBE4F;fill-rule:nonzero}
   ]]>
  </style>
 </defs>
 <g id="Layer_x0020_1">
  <metadata id="CorelCorpID_0Corel-Layer"/>
  <g id="_711816720">
   <g>
    <path class="fil0" d="M496 132l-73 -73c-3,-3 -7,-5 -12,-5 -4,0 -8,2 -12,5l-152 152c-3,3 -5,8 -5,12 0,5 2,9 5,12l73 73c3,4 8,5 12,5 5,0 9,-1 12,-5l152 -152c4,-3 5,-7 5,-12 0,-4 -1,-9 -5,-12zm-34 -111l73 73c14,14 21,32 21,50 0,19 -7,37 -21,51l-152 152c-14,14 -32,21 -51,21 -18,0 -36,-7 -50,-21l-73 -73c-14,-14 -21,-32 -21,-51 0,-18 7,-36 21,-50l152 -152c14,-14 32,-21 50,-21 19,0 37,7 51,21z"/>
    <path class="fil0" d="M308 221l-73 -73c-3,-3 -7,-5 -12,-5 -4,0 -9,2 -12,5l-152 152c-3,3 -5,8 -5,12 0,4 2,9 5,12l73 73c3,3 8,5 12,5 5,0 9,-2 12,-5l152 -152c4,-3 5,-8 5,-12 0,-5 -1,-9 -5,-12zm-34 -111l73 72c14,14 21,33 21,51 0,18 -7,37 -21,50l-152 152c-14,14 -32,21 -51,21 -18,0 -36,-7 -50,-21l-73 -72c-14,-14 -21,-33 -21,-51 0,-18 7,-37 21,-51l152 -151c14,-14 32,-21 50,-21 19,0 37,7 51,21z"/>
   </g>
   <g>
    <path class="fil1" d="M399 530l132 0 0 -93 93 0 0 -132 -93 0 0 -92 -132 0 0 92 -92 0 0 132 92 0 0 93zm66 0m66 -47m46 -46m47 -66m-47 -66m-46 -46m-66 -46m-66 46m-46 46m-46 66m46 66m46 46"/>
    <path class="fil2" d="M409 520l112 0 0 -93 93 0 0 -112 -93 0 0 -92 -112 0 0 92 -92 0 0 112 92 0 0 93zm122 20l-141 0 0 -93 -93 0 0 -151 93 0 0 -93 151 0 0 93 93 0 0 151 -93 0 0 93 -10 0z"/>
   </g>
  </g>
 </g>
</svg>
