<?xml version="1.0" encoding="UTF-8"?>
<!DOCTYPE svg PUBLIC "-//W3C//DTD SVG 1.1//EN" "http://www.w3.org/Graphics/SVG/1.1/DTD/svg11.dtd">
<!-- Creator: CorelDRAW X7 -->
<svg xmlns="http://www.w3.org/2000/svg" xml:space="preserve" width="45px" height="39px" version="1.1" style="shape-rendering:geometricPrecision; text-rendering:geometricPrecision; image-rendering:optimizeQuality; fill-rule:evenodd; clip-rule:evenodd"
viewBox="0 0 208 180"
 xmlns:xlink="http://www.w3.org/1999/xlink">
 <defs>
  <style type="text/css">
   <![CDATA[
    .fil0 {fill:none}
    .fil2 {fill:#373435}
    .fil1 {fill:#373435;fill-rule:nonzero}
    .fil3 {fill:#373435;fill-rule:nonzero}
   ]]>
  </style>
 </defs>
 <g id="Layer_x0020_1">
  <metadata id="CorelCorpID_0Corel-Layer"/>
  <path class="fil0" d="M23 6l138 0c10,0 17,8 17,17l0 90c0,9 -7,17 -17,17l-138 0c-9,0 -17,-8 -17,-17l0 -90c0,-9 8,-17 17,-17z"/>
  <polygon class="fil1" points="86,0 86,12 61,12 61,0 "/>
  <polygon class="fil1" points="123,0 123,12 98,12 98,0 "/>
  <polygon class="fil1" points="161,0 161,12 136,12 136,0 "/>
  <path class="fil1" d="M184 34l-12 0c0,-4 0,-9 0,-13l0 0c0,0 -1,-1 -1,-2l0 1 0 -1 0 0 0 -1 0 0c-1,-1 -1,-1 -2,-2l0 0 0 0 0 0 -1 -1 0 0 8 -9c3,2 5,5 6,8l0 0c1,1 2,3 2,4 0,2 0,3 0,4l0 12z"/>
  <polygon class="fil1" points="184,71 172,71 172,46 184,46 "/>
  <polygon class="fil1" points="80,136 80,123 105,123 105,136 "/>
  <polygon class="fil1" points="42,136 42,123 67,123 67,136 "/>
  <path class="fil1" d="M3 124c2,4 6,8 11,10l0 0c1,1 3,1 4,1 2,1 3,1 4,1l8 0 0 -13c-3,0 -6,1 -8,0 -1,0 -2,0 -3,0l1 0 -1 0 0 0 0 -1 0 0 -1 0 0 0c-1,0 -1,-1 -2,-2l0 0 0 0 0 0c-1,-1 -2,-1 -2,-2l-11 6z"/>
  <polygon class="fil1" points="0,84 12,84 12,109 0,109 "/>
  <polygon class="fil1" points="0,46 12,46 12,71 0,71 "/>
  <path class="fil1" d="M8 6c-2,2 -5,5 -6,8l0 0c-1,1 -1,3 -1,4 -1,2 -1,3 -1,4l0 12 12 0c0,-4 0,-9 1,-12 0,-1 0,-2 0,-3l0 1 0 -1 0 0 1 0 -1 0 1 -1 0 0c0,-1 1,-1 2,-2l0 0 0 0 0 0 0 -1 -8 -9z"/>
  <polygon class="fil1" points="48,0 48,12 23,12 23,0 "/>
  <g id="_591225400">
   <polygon id="path827" class="fil2" points="203,115 105,40 133,162 156,135 185,179 201,167 171,124 203,115 "/>
   <path class="fil3" d="M198 114l-89 -68 25 111 20 -24 2 -2 2 3 29 43 12 -9 -30 -43 -2 -3 4 0 27 -8zm-92 -76l99 76 3 2 -4 2 -29 7 28 41 -20 14 -27 -41 -21 24 -3 4 -1 -5 -28 -121 3 -3z"/>
  </g>
 </g>
</svg>
