<?xml version="1.0" encoding="UTF-8"?>
<!DOCTYPE svg PUBLIC "-//W3C//DTD SVG 1.1//EN" "http://www.w3.org/Graphics/SVG/1.1/DTD/svg11.dtd">
<!-- Creator: CorelDRAW X7 -->
<svg xmlns="http://www.w3.org/2000/svg" xml:space="preserve" width="150px" height="150px" version="1.1" style="shape-rendering:geometricPrecision; text-rendering:geometricPrecision; image-rendering:optimizeQuality; fill-rule:evenodd; clip-rule:evenodd"
viewBox="0 0 15000 15000"
 xmlns:xlink="http://www.w3.org/1999/xlink">
 <defs>
  <style type="text/css">
   <![CDATA[
    .fil0 {fill:#D2E28B}
   ]]>
  </style>
 </defs>
 <g id="Layer_x0020_1">
  <metadata id="CorelCorpID_0Corel-Layer"/>
  <path class="fil0" d="M7500 1520c3303,0 5980,2677 5980,5980 0,3303 -2677,5980 -5980,5980 -3303,0 -5980,-2677 -5980,-5980 0,-3303 2677,-5980 5980,-5980zm-1356 10949c104,-255 28,-727 28,-1063 -218,19 -1236,388 -1749,-641 -132,-263 -141,-393 -336,-621 -307,-358 -388,-147 -497,-555 666,0 694,126 997,533 588,789 1409,776 1670,317 96,-168 197,-469 298,-658 -1397,0 -2391,-941 -2391,-2104 0,-731 -75,-1069 259,-1656 410,-719 123,-277 123,-926 0,-1432 739,-737 1452,-394 366,176 820,-84 1608,-84 1763,0 327,535 1911,-194 542,-248 958,-397 958,576 0,692 -278,330 86,962 708,1227 350,3820 -2094,3820 88,330 161,249 265,596 216,722 35,1690 135,2089 2183,-599 3787,-2597 3787,-4971 0,-2846 -2307,-5154 -5154,-5154 -2847,0 -5154,2308 -5154,5154 0,2378 1609,4379 3798,4974z"/>
 </g>
</svg>
