<?xml version="1.0" encoding="UTF-8"?>
<!DOCTYPE svg PUBLIC "-//W3C//DTD SVG 1.1//EN" "http://www.w3.org/Graphics/SVG/1.1/DTD/svg11.dtd">
<!-- Creator: CorelDRAW X7 -->
<svg xmlns="http://www.w3.org/2000/svg" xml:space="preserve" width="150px" height="150px" version="1.1" style="shape-rendering:geometricPrecision; text-rendering:geometricPrecision; image-rendering:optimizeQuality; fill-rule:evenodd; clip-rule:evenodd"
viewBox="0 0 15000 15000"
 xmlns:xlink="http://www.w3.org/1999/xlink">
 <defs>
  <style type="text/css">
   <![CDATA[
    .str0 {stroke:#D2E28B;stroke-width:833.268}
    .fil0 {fill:none}
   ]]>
  </style>
 </defs>
 <g id="Layer_x0020_1">
  <metadata id="CorelCorpID_0Corel-Layer"/>
  <path class="fil0 str0" d="M12874 8586c-415,310 -1115,393 -1509,10 -69,-69 -126,-145 -191,-215 -105,-113 -272,-253 -390,-176 0,3 1,8 1,13 0,286 0,3295 0,3295l-3215 0c-97,100 35,263 144,362 62,56 132,102 197,154 185,152 290,346 317,577 67,580 -300,1109 -868,1318 -575,211 -1269,64 -1670,-388 -345,-391 -448,-1073 -32,-1455 72,-65 152,-120 226,-182 126,-104 283,-273 172,-386l-3215 0 0 -3295c145,10 279,33 384,135 58,59 108,126 163,187 160,176 365,274 608,300 613,64 1172,-284 1393,-822 222,-546 67,-1202 -410,-1581 -413,-328 -1132,-425 -1538,-31 -67,67 -125,144 -190,215 -112,119 -246,150 -410,162l0 -3294 3215 0c100,-102 -35,-265 -144,-364 -62,-55 -132,-102 -196,-155 -186,-150 -289,-344 -316,-575 -70,-597 321,-1138 914,-1335 579,-191 1262,-28 1646,431 327,392 414,1056 9,1428 -71,67 -153,120 -227,183 -126,103 -282,273 -172,387l3215 0 0 3294c-6,0 -13,-1 -20,-3l0 3c106,94 278,-34 384,-136 59,-58 107,-125 162,-186 160,-175 365,-274 608,-300 631,-67 1203,304 1411,865 201,548 29,1196 -456,1560z"/>
 </g>
</svg>
