<?xml version="1.0" encoding="UTF-8"?>
<!DOCTYPE svg PUBLIC "-//W3C//DTD SVG 1.1//EN" "http://www.w3.org/Graphics/SVG/1.1/DTD/svg11.dtd">
<!-- Creator: CorelDRAW X7 -->
<svg xmlns="http://www.w3.org/2000/svg" xml:space="preserve" width="150px" height="150px" version="1.1" style="shape-rendering:geometricPrecision; text-rendering:geometricPrecision; image-rendering:optimizeQuality; fill-rule:evenodd; clip-rule:evenodd"
viewBox="0 0 15000 15000"
 xmlns:xlink="http://www.w3.org/1999/xlink">
 <defs>
  <style type="text/css">
   <![CDATA[
    .str0 {stroke:#D2E28B;stroke-width:833.268}
    .fil0 {fill:none}
    .fil1 {fill:#A8CF45}
    .fil2 {fill:#FEFEFE;fill-rule:nonzero}
   ]]>
  </style>
 </defs>
 <g id="Layer_x0020_1">
  <metadata id="CorelCorpID_0Corel-Layer"/>
  <path class="fil0 str0" d="M10374 8211c-351,277 -944,351 -1277,8 -58,-61 -107,-129 -161,-192 -89,-101 -231,-226 -331,-157 0,3 1,7 1,12 0,255 0,2945 0,2945l-2721 0c-82,89 30,235 122,323 53,50 112,92 167,139 156,135 245,308 268,515 57,518 -254,991 -734,1178 -487,188 -1075,57 -1414,-347 -292,-349 -379,-959 -27,-1301 61,-57 129,-106 191,-162 107,-93 240,-244 146,-345l-2721 0 0 -2945c123,9 237,29 325,121 49,52 91,112 138,166 136,158 309,246 515,268 518,58 992,-253 1178,-734 188,-488 57,-1075 -347,-1413 -349,-293 -958,-380 -1301,-28 -57,60 -106,129 -161,192 -94,107 -208,134 -347,145l0 -2945 2721 0c84,-90 -29,-236 -122,-324 -52,-50 -111,-92 -166,-139 -157,-134 -245,-308 -267,-514 -59,-534 271,-1018 773,-1193 490,-171 1068,-25 1394,385 276,350 350,943 7,1277 -60,59 -129,107 -192,162 -107,93 -239,245 -146,346l2721 0 0 2945c-5,0 -11,-1 -17,-2l0 2c90,84 236,-30 325,-121 50,-52 91,-112 137,-166 136,-157 309,-246 515,-269 534,-60 1018,272 1194,773 170,490 25,1069 -386,1395z"/>
  <g id="_643297624">
   <ellipse class="fil1" cx="11289" cy="10676" rx="3389" ry="3320"/>
   <polygon class="fil2" points="8732,10148 10749,10148 10749,8171 11828,8171 11828,10148 13845,10148 13845,11205 11828,11205 11828,13181 10749,13181 10749,11205 8732,11205 "/>
  </g>
 </g>
</svg>
