<?xml version="1.0" encoding="UTF-8"?>
<!DOCTYPE svg PUBLIC "-//W3C//DTD SVG 1.1//EN" "http://www.w3.org/Graphics/SVG/1.1/DTD/svg11.dtd">
<!-- Creator: CorelDRAW X7 -->
<svg xmlns="http://www.w3.org/2000/svg" xml:space="preserve" width="200px" height="153px" version="1.1" style="shape-rendering:geometricPrecision; text-rendering:geometricPrecision; image-rendering:optimizeQuality; fill-rule:evenodd; clip-rule:evenodd"
viewBox="0 0 744 565"
 xmlns:xlink="http://www.w3.org/1999/xlink">
 <defs>
  <style type="text/css">
   <![CDATA[
    .fil0 {fill:#D2D3D5}
    .fil2 {fill:#FEFEFE;fill-rule:nonzero}
    .fil1 {fill:#F58634;fill-rule:nonzero}
   ]]>
  </style>
 </defs>
 <g id="Layer_x0020_1">
  <metadata id="CorelCorpID_0Corel-Layer"/>
  <path class="fil0" d="M87 507l470 0c48,0 87,-39 87,-87l0 -282c0,-49 -39,-88 -87,-88l-270 0 -34 -44c-2,-4 -7,-6 -11,-6l-155 0c-48,0 -87,39 -87,87l0 333c0,48 39,87 87,87z"/>
  <g id="_324793728">
   <path class="fil1" d="M630 551l100 -100 -71 -70 71 -70 -100 -100 -70 70 -70 -70 -100 100 70 70 -70 70 100 100 70 -71 70 71zm50 -50m14 -85m0 -70m-14 -85m-85 -15m-70 0m-85 15m-15 85m0 70m15 85m85 14m70 0"/>
   <path class="fil2" d="M630 536l85 -85 -71 -70 71 -70 -85 -85 -70 70 -70 -70 -85 85 70 70 -70 70 85 85 70 -71 70 71zm107 -78l-107 107 -70 -70 -70 70 -115 -114 70 -70 -70 -70 115 -115 70 70 70 -70 114 115 -70 70 70 70 -7 7z"/>
  </g>
 </g>
</svg>
