<?xml version="1.0" encoding="UTF-8"?>
<!DOCTYPE svg PUBLIC "-//W3C//DTD SVG 1.1//EN" "http://www.w3.org/Graphics/SVG/1.1/DTD/svg11.dtd">
<!-- Creator: CorelDRAW X7 -->
<svg xmlns="http://www.w3.org/2000/svg" xml:space="preserve" width="150px" height="150px" version="1.1" style="shape-rendering:geometricPrecision; text-rendering:geometricPrecision; image-rendering:optimizeQuality; fill-rule:evenodd; clip-rule:evenodd"
viewBox="0 0 15000 15000"
 xmlns:xlink="http://www.w3.org/1999/xlink">
 <defs>
  <style type="text/css">
   <![CDATA[
    .str0 {stroke:#D2E28B;stroke-width:833.268}
    .fil0 {fill:none}
    .fil1 {fill:#A8CF45}
   ]]>
  </style>
 </defs>
 <g id="Layer_x0020_1">
  <metadata id="CorelCorpID_0Corel-Layer"/>
  <rect class="fil0 str0" x="1759" y="1996" width="7838" height="10529"/>
  <path class="fil1" d="M11006 10131l-1 -2059c0,-285 -232,-518 -518,-518 -276,0 -503,218 -517,491l0 -470c0,-285 -233,-518 -518,-518 -286,0 -518,233 -518,518l0 -450c0,-286 -232,-518 -518,-518 -231,0 -427,152 -494,362l-25 0 1 1076 -3 -2889c0,-285 -232,-518 -518,-518 -285,0 -518,232 -518,518l0 4249 -220 175c-39,-47 -203,-267 -725,-968l-8 -11c-215,-293 -551,-434 -796,-501 -118,-32 -231,-48 -336,-48 -193,0 -337,56 -404,157 -77,115 -44,280 93,465l18 25 26 16c54,33 190,118 280,191 349,283 585,952 611,1028l12 26c60,105 491,860 759,1329l45 78 6 12c242,640 1411,1450 1425,1460l0 840 2801 0 0 -1573c654,-891 560,-1971 560,-1975z"/>
 </g>
</svg>
