<?xml version="1.0" encoding="UTF-8"?>
<!DOCTYPE svg PUBLIC "-//W3C//DTD SVG 1.1//EN" "http://www.w3.org/Graphics/SVG/1.1/DTD/svg11.dtd">
<!-- Creator: CorelDRAW X7 -->
<svg xmlns="http://www.w3.org/2000/svg" xml:space="preserve" width="150px" height="150px" version="1.1" style="shape-rendering:geometricPrecision; text-rendering:geometricPrecision; image-rendering:optimizeQuality; fill-rule:evenodd; clip-rule:evenodd"
viewBox="0 0 15000 15000"
 xmlns:xlink="http://www.w3.org/1999/xlink">
 <defs>
  <style type="text/css">
   <![CDATA[
    .str1 {stroke:#373435;stroke-width:833.268}
    .str0 {stroke:#373435;stroke-width:208.346}
    .fil1 {fill:none}
    .fil0 {fill:#373435;fill-rule:nonzero}
   ]]>
  </style>
 </defs>
 <g id="Layer_x0020_1">
  <metadata id="CorelCorpID_0Corel-Layer"/>
  <path class="fil0" d="M2648 4291l-289 0 0 -1838c-69,67 -160,133 -273,199 -112,66 -214,116 -304,149l0 -279c161,-76 302,-167 423,-276 121,-107 207,-212 257,-313l186 0 0 2358z"/>
  <path class="fil0" d="M2994 8407l0 275 -1555 0c-2,-69 9,-136 34,-201 40,-105 104,-209 192,-312 88,-102 213,-220 377,-354 254,-209 427,-375 517,-497 91,-123 136,-239 136,-348 0,-114 -41,-210 -123,-289 -82,-78 -189,-118 -321,-118 -139,0 -251,42 -334,125 -84,83 -126,197 -127,344l-295 -29c20,-221 97,-389 229,-505 133,-116 310,-174 534,-174 225,0 404,62 535,188 132,125 197,280 197,465 0,94 -19,186 -58,277 -38,91 -102,187 -191,287 -90,100 -238,239 -444,414 -174,145 -285,243 -334,295 -49,52 -90,104 -122,157l1153 0z"/>
  <path class="fil0" d="M1482 12100l288 -39c34,164 89,282 169,354 79,72 176,108 292,108 136,0 251,-47 344,-141 93,-94 140,-211 140,-349 0,-133 -43,-242 -130,-328 -87,-86 -197,-129 -330,-129 -55,0 -123,11 -204,32l32 -253c19,3 35,4 46,4 124,0 234,-33 333,-96 99,-64 148,-163 148,-296 0,-105 -36,-193 -108,-262 -71,-70 -164,-104 -277,-104 -113,0 -206,36 -281,107 -75,71 -123,177 -144,319l-289 -52c36,-194 115,-344 241,-450 124,-107 280,-160 466,-160 128,0 246,27 354,82 108,55 190,130 247,224 58,96 86,196 86,303 0,101 -27,193 -81,276 -55,83 -136,149 -243,198 139,32 247,99 324,200 77,100 115,227 115,379 0,205 -75,379 -224,522 -150,142 -339,213 -568,213 -206,0 -377,-61 -513,-184 -137,-123 -214,-282 -233,-478z"/>
  <line class="fil1 str0" x1="4036" y1="3110" x2="13827" y2= "3110" />
  <line class="fil1 str1" x1="4036" y1="3112" x2="13827" y2= "3112" />
  <line class="fil1 str1" x1="4036" y1="7337" x2="13827" y2= "7337" />
  <line class="fil1 str1" x1="4036" y1="11562" x2="13827" y2= "11562" />
 </g>
</svg>
