<?xml version="1.0" encoding="UTF-8"?>
<!DOCTYPE svg PUBLIC "-//W3C//DTD SVG 1.1//EN" "http://www.w3.org/Graphics/SVG/1.1/DTD/svg11.dtd">
<!-- Creator: CorelDRAW X7 -->
<svg xmlns="http://www.w3.org/2000/svg" xml:space="preserve" width="150px" height="150px" version="1.1" style="shape-rendering:geometricPrecision; text-rendering:geometricPrecision; image-rendering:optimizeQuality; fill-rule:evenodd; clip-rule:evenodd"
viewBox="0 0 150 150"
 xmlns:xlink="http://www.w3.org/1999/xlink">
 <defs>
  <style type="text/css">
   <![CDATA[
    .str0 {stroke:#FEFEFE;stroke-width:8.33268}
    .fil3 {fill:none}
    .fil2 {fill:#F58634}
    .fil1 {fill:#FEFEFE;fill-rule:nonzero}
    .fil0 {fill:#D2E28B;fill-rule:nonzero}
   ]]>
  </style>
 </defs>
 <g id="Layer_x0020_1">
  <metadata id="CorelCorpID_0Corel-Layer"/>
  <g id="_1237510810784">
   <path class="fil0" d="M117 55l-15 -15c0,0 -1,-1 -2,-1 -1,0 -2,1 -2,1l-31 30c0,1 -1,2 -1,3 0,1 1,2 1,2l15 15c0,0 1,1 2,1 1,0 2,-1 3,-1l30 -30c1,-1 1,-2 1,-3 0,-1 0,-2 -1,-2zm-7 -22l14 14c3,3 5,6 5,10 0,4 -2,7 -5,10l-30 30c-2,3 -6,5 -10,5 -3,0 -7,-2 -10,-5l-14 -14c-3,-3 -4,-7 -4,-10 0,-4 1,-7 4,-10l30 -30c3,-3 6,-5 10,-5 4,0 7,2 10,5z"/>
   <path class="fil0" d="M79 72l-14 -14c-1,-1 -2,-1 -2,-1 -1,0 -2,0 -3,1l-30 30c-1,1 -1,2 -1,2 0,1 0,2 1,3l14 14c1,1 2,1 3,1 1,0 2,0 2,-1l30 -30c1,0 1,-1 1,-2 0,-1 0,-2 -1,-3zm-6 -22l14 15c3,2 4,6 4,10 0,3 -1,7 -4,10l-30 30c-3,3 -7,4 -10,4 -4,0 -7,-1 -10,-4l-15 -14c-2,-3 -4,-7 -4,-11 0,-3 2,-7 4,-10l30 -30c3,-3 7,-4 11,-4 3,0 7,1 10,4z"/>
  </g>
  <polygon class="fil1" points="71,92 91,92 91,72 102,72 102,92 122,92 122,103 102,103 102,123 91,123 91,103 71,103 "/>
  <circle class="fil2" cx="96" cy="97" r="34"/>
  <line class="fil3 str0" x1="71" y1="97" x2="122" y2= "97" />
 </g>
</svg>
