<?xml version="1.0" encoding="UTF-8"?>
<!DOCTYPE svg PUBLIC "-//W3C//DTD SVG 1.1//EN" "http://www.w3.org/Graphics/SVG/1.1/DTD/svg11.dtd">
<!-- Creator: CorelDRAW X7 -->
<svg xmlns="http://www.w3.org/2000/svg" xml:space="preserve" width="150px" height="150px" version="1.1" style="shape-rendering:geometricPrecision; text-rendering:geometricPrecision; image-rendering:optimizeQuality; fill-rule:evenodd; clip-rule:evenodd"
viewBox="0 0 15000 15000"
 xmlns:xlink="http://www.w3.org/1999/xlink">
 <defs>
  <style type="text/css">
   <![CDATA[
    .fil0 {fill:#D2E28B}
    .fil1 {fill:#D2E28B;fill-rule:nonzero}
   ]]>
  </style>
 </defs>
 <g id="Layer_x0020_1">
  <metadata id="CorelCorpID_0Corel-Layer"/>
  <g id="_394056896">
   <polygon class="fil0" points="471,10397 5134,10397 7466,7764 5134,5130 "/>
   <path class="fil1" d="M4665 11878l9326 0 -4663 -5267 -4663 5267zm4663 0m2332 -2634m-4664 0"/>
   <path class="fil1" d="M12592 2216c535,0 1020,218 1370,568 351,350 568,835 568,1371 0,535 -217,1020 -568,1370 -352,350 -836,568 -1370,568 -534,0 -1018,-217 -1369,-568 -353,-352 -569,-837 -569,-1370 0,-535 217,-1019 568,-1370 350,-351 834,-569 1370,-569zm954 984c-244,-244 -582,-396 -954,-396 -373,0 -711,152 -955,396 -245,243 -396,581 -396,955 0,373 151,711 395,954 244,245 582,396 956,396 373,0 711,-151 954,-394 245,-246 396,-584 396,-956 0,-373 -151,-711 -396,-955z"/>
  </g>
 </g>
</svg>
