<?xml version="1.0" encoding="UTF-8"?>
<!DOCTYPE svg PUBLIC "-//W3C//DTD SVG 1.1//EN" "http://www.w3.org/Graphics/SVG/1.1/DTD/svg11.dtd">
<!-- Creator: CorelDRAW X7 -->
<svg xmlns="http://www.w3.org/2000/svg" xml:space="preserve" width="0.096185in" height="0.163965in" version="1.1" style="shape-rendering:geometricPrecision; text-rendering:geometricPrecision; image-rendering:optimizeQuality; fill-rule:evenodd; clip-rule:evenodd"
viewBox="0 0 209 356"
 xmlns:xlink="http://www.w3.org/1999/xlink">
 <defs>
  <style type="text/css">
   <![CDATA[
    .fil0 {fill:#373435}
   ]]>
  </style>
 </defs>
 <g id="Layer_x0020_1">
  <metadata id="CorelCorpID_0Corel-Layer"/>
  <g id="_537365424">
   <path class="fil0" d="M58 205c4,25 26,44 51,44 24,0 46,-19 50,-44l0 0 0 -8 0 -1 0 -1 0 -1 0 -1 0 0 0 -1 0 -1 0 -1 0 0 0 -1 0 0 0 -1 0 -1 0 0 0 -1 0 0 0 -1 0 0 0 -1 0 0 0 0 0 -1 0 0 0 -1 0 0 0 0 0 -1 0 0 0 0 0 0 0 -1 0 0 0 0 0 0 0 0 0 -1 0 0 0 0 0 0 0 0 0 0 0 0 0 -1 0 0 0 0 0 0 0 0 0 0 0 0 0 0 0 0 0 0 0 0 0 0 0 0 0 0 0 0 0 0 0 0 0 0 0 -45 -102 0 0 72 1 0z"/>
   <path class="fil0" d="M159 50c0,-29 -24,-50 -50,-50 -28,0 -52,21 -52,50l0 0 0 0 0 71 102 0 0 -71 0 0 0 0z"/>
   <path class="fil0" d="M209 182c0,-9 -4,-13 -10,-13 -7,0 -10,4 -10,13 0,49 -40,89 -83,89 -46,0 -83,-40 -83,-89 0,-9 -6,-13 -13,-13 -3,0 -10,4 -10,13 0,58 36,102 86,111l0 40c-30,0 -30,0 -30,0 -3,0 -6,5 -6,14 0,4 3,9 6,9 96,0 96,0 96,0 4,0 10,-5 10,-9 0,-9 -6,-14 -10,-14 -29,0 -29,0 -29,0l0 -40c49,-9 86,-53 86,-111l0 0z"/>
  </g>
 </g>
</svg>
