<?xml version="1.0" encoding="UTF-8"?>
<!DOCTYPE svg PUBLIC "-//W3C//DTD SVG 1.1//EN" "http://www.w3.org/Graphics/SVG/1.1/DTD/svg11.dtd">
<!-- Creator: CorelDRAW X7 -->
<svg xmlns="http://www.w3.org/2000/svg" xml:space="preserve" width="564px" height="303px" version="1.1" style="shape-rendering:geometricPrecision; text-rendering:geometricPrecision; image-rendering:optimizeQuality; fill-rule:evenodd; clip-rule:evenodd"
viewBox="0 0 791 425"
 xmlns:xlink="http://www.w3.org/1999/xlink">
 <defs>
  <style type="text/css">
   <![CDATA[
    .fil0 {fill:none}
    .fil4 {fill:#F79740}
    .fil1 {fill:#80C1BF}
    .fil3 {fill:#5B5F61}
    .fil2 {fill:#67B7B5}
   ]]>
  </style>
 </defs>
 <g id="Layer_x0020_1">
  <metadata id="CorelCorpID_0Corel-Layer"/>
  <g id="_1981145953360">
   <polygon class="fil0" points="0,424 790,425 791,1 1,0 "/>
   <path class="fil1" d="M487 89c-5,-8 -10,-16 -17,-22 0,0 -1,0 -1,1 0,0 0,0 0,1 1,1 0,2 -1,3 7,5 12,12 19,17zm14 -3c-3,-6 -8,-12 -12,-17 -3,-3 -6,-5 -9,-8 1,1 1,3 2,4 0,1 -1,2 -2,3 7,6 14,13 21,18zm-29 -26c0,0 -1,0 -1,-1 2,2 3,3 5,5 -1,-2 -2,-3 -4,-4zm-21 -12c0,-2 2,-2 4,-1 0,0 0,0 0,1 1,-1 2,-1 3,-1 1,1 1,2 2,3 0,0 0,0 0,1 2,0 2,1 3,2 0,0 1,1 1,1 1,0 1,0 1,1 2,-2 6,-1 8,0 0,0 1,0 1,1 0,-1 0,-1 0,-1 -3,-3 -7,-6 -11,-9 -3,-2 0,-6 3,-5 8,6 15,12 22,19 1,1 2,2 2,2 4,4 8,7 12,10 -1,-2 -3,-4 -4,-6 -9,-6 -16,-14 -24,-20 -2,-3 0,-6 3,-5 8,4 15,11 21,17 1,1 1,2 2,2 0,0 1,1 1,1 4,3 8,6 12,9 -2,-3 -4,-5 -6,-7 -7,-5 -13,-11 -19,-17 -3,-2 1,-6 4,-4 5,5 11,9 16,14 1,1 3,2 4,3 3,2 6,5 10,6 -7,-5 -13,-10 -20,-16 -3,-2 1,-6 4,-5 6,4 12,8 19,12 3,2 6,4 10,6 -6,-5 -12,-9 -18,-13 -3,-2 0,-6 3,-4 6,3 13,7 21,10 -4,-3 -9,-6 -12,-9 -3,-1 -1,-5 2,-4 6,2 11,5 17,7 -3,-1 -7,-3 -10,-4 -3,-1 -1,-6 1,-5 4,1 7,3 10,4 -2,-2 -1,-5 2,-4 6,1 12,4 19,5 -1,0 0,-1 1,-1 2,0 4,1 6,2 1,0 1,1 1,1 0,0 1,1 2,1 1,1 0,4 -1,3 -4,0 -7,-1 -10,-2 0,2 -1,3 -3,3 -2,0 -3,0 -5,0 1,0 1,1 2,1 2,1 1,4 -1,4 -5,0 -10,-1 -14,-3 2,2 4,4 7,5 2,2 0,5 -2,5 -3,0 -6,-1 -9,-2 1,1 1,2 2,2 2,2 1,5 -2,5 -4,0 -8,0 -11,-2 1,2 3,3 5,5 1,1 0,5 -3,5 -4,-1 -7,-2 -11,-4 1,2 3,4 4,6 2,2 -1,6 -4,5 -3,-2 -7,-4 -10,-6 1,2 2,3 3,4 1,3 -1,7 -4,5 -2,-1 -4,-2 -6,-3 2,3 4,7 5,11 0,2 -2,6 -5,4 -4,-3 -8,-6 -12,-10 1,3 2,5 3,8 0,2 -2,5 -5,4 -4,-2 -7,-4 -10,-7 1,2 2,4 2,6 1,3 -2,6 -5,4 -2,-1 -3,-2 -5,-3 1,1 1,3 2,4 1,4 -3,6 -5,4 -1,0 -1,-1 -2,-1 0,0 0,1 0,1 -1,1 -3,3 -3,3 -2,4 -8,1 -6,-2 1,-1 1,-2 2,-3 1,-1 0,-2 0,-4 -1,-2 1,-4 3,-4 -2,-4 -4,-8 -5,-12 -1,-3 3,-6 5,-3 3,2 5,4 7,6 -3,-6 -8,-11 -12,-16 -1,-2 -1,-4 0,-5 -7,-4 -13,-12 -10,-21z"/>
   <path class="fil2" d="M205 399c8,1 17,1 25,0 -4,-3 -7,-6 -12,-8 -2,-2 -1,-5 3,-4 11,3 21,6 32,8 9,2 17,4 26,5 -3,-3 -7,-7 -12,-10 -2,-2 0,-5 4,-4 20,4 39,10 60,13 -9,-4 -18,-8 -27,-12 -4,-2 0,-6 5,-4 29,6 56,15 86,20 -12,-5 -25,-9 -37,-13 -6,-2 -3,-7 4,-6 22,5 43,11 65,15 -8,-2 -17,-5 -26,-8 -6,-1 -2,-7 5,-5 26,7 53,15 81,19 -18,-8 -39,-14 -61,-16 -6,-1 -4,-6 3,-6 23,2 45,8 67,13 -11,-5 -22,-9 -34,-12 -5,-2 0,-6 5,-5 13,4 25,8 37,12 10,3 21,5 32,7 -2,-2 -4,-3 -6,-5 -4,-1 1,-4 5,-3 7,3 15,6 24,7 0,0 0,0 0,0 -2,-1 0,-3 3,-4 2,0 4,1 4,2 1,0 2,1 2,1 4,1 7,2 11,4 3,1 0,3 -3,3 -10,0 -20,-1 -29,-4 1,2 0,4 -3,4 -7,0 -13,-1 -20,-2 1,1 2,1 3,1 4,2 0,6 -5,5 -9,-2 -18,-4 -27,-6 5,3 10,5 15,8 3,1 2,6 -4,5 -14,-1 -27,-3 -40,-6 0,2 -3,3 -7,3 -14,-1 -29,-4 -43,-7 2,1 4,1 6,2 4,2 2,6 -4,6 -28,-3 -54,-9 -79,-16 3,2 7,4 10,6 3,2 -2,4 -5,4 -22,-1 -41,-7 -61,-12 3,2 5,5 9,8 1,1 -1,4 -4,3 -20,0 -37,-6 -55,-11 2,2 4,3 5,5 2,1 1,3 -1,3 -11,1 -22,2 -32,0 -4,0 -4,-4 0,-3z"/>
   <path class="fil3" d="M376 109c-4,-10 -9,-20 -17,-28 -7,-8 -17,-13 -28,-17 -21,-7 -45,-7 -66,2 -24,11 -42,35 -47,61 -4,24 2,50 17,69 16,20 41,30 66,28 17,-1 34,-6 46,-18 12,-10 19,-23 25,-38 -20,3 -42,-5 -50,-25 -2,0 -2,-3 -1,-4 4,-3 10,-3 15,-5 5,-2 9,-3 13,-5 10,-5 19,-12 26,-20 1,0 1,0 1,0zm4 1c0,0 0,0 0,0 1,1 1,2 0,4 -3,4 -7,8 -12,11 -4,3 -9,6 -14,8 -5,3 -11,5 -16,7 -4,1 -8,3 -11,3 11,16 29,21 48,17 3,-4 9,0 8,5 -5,16 -14,33 -27,45 -12,12 -27,19 -44,21 -26,4 -52,-1 -72,-19 -19,-17 -30,-41 -30,-66 -1,-27 10,-53 30,-71 7,-7 16,-12 25,-16 0,0 0,0 0,0 11,-8 21,-19 23,-34 0,-3 4,-2 4,0 -1,9 -4,17 -8,24 2,-2 5,-4 7,-7 6,-6 12,-13 15,-22 1,-2 4,-1 3,2 -2,8 -7,16 -13,23 -3,3 -5,6 -8,8 11,-1 22,0 32,2 28,6 57,25 60,55z"/>
   <path class="fil3" d="M313 114c-2,-4 -7,-8 -12,-9 -1,-1 -3,3 -2,4 4,2 6,6 9,9 2,3 6,0 5,-4z"/>
   <path class="fil3" d="M338 98c0,-1 -1,-1 -2,-2 0,-1 -1,-2 -2,-3 -2,-2 -5,-3 -7,-4 -2,-1 -3,0 -3,2 2,4 5,7 8,11 2,4 9,0 6,-4z"/>
   <path class="fil3" d="M370 251c-6,-12 -13,-24 -20,-36 -2,-2 -6,0 -5,2 7,13 13,25 18,39 4,11 9,23 9,35 0,1 1,1 1,2 -10,1 -20,5 -30,8 -12,3 -23,5 -34,6 -1,-4 -3,-7 -4,-10 -1,-7 -2,-13 -3,-19 -3,-14 -4,-28 -8,-42 -1,-3 -6,-2 -5,1 3,13 4,27 6,40 1,6 2,13 3,19 0,3 1,6 2,9 1,3 1,7 3,9 1,1 3,2 5,1 12,0 23,-2 35,-5 5,-2 11,-4 16,-5 7,-3 13,-5 19,-8 2,-1 2,-2 1,-4 1,0 2,-2 2,-3 -1,-14 -6,-27 -11,-39z"/>
   <path class="fil3" d="M277 379c-3,-4 -7,-8 -6,-13 0,-3 1,-5 2,-8 4,-6 9,-12 14,-17 5,-6 11,-11 17,-17 2,-2 5,-6 6,-8 1,-4 -2,-5 -4,-3 -4,5 -8,8 -12,12 -5,4 -9,9 -13,13 -8,8 -17,17 -19,28 -2,9 2,16 6,21 3,6 13,-3 9,-8z"/>
   <path class="fil3" d="M419 347c-4,0 -6,4 -10,5 -2,0 -4,-1 -6,-3 -4,-3 -7,-10 -10,-16 -5,-11 -9,-24 -14,-36 -1,-3 -5,-2 -4,2 2,7 4,13 6,20 2,7 5,15 9,22 3,7 7,13 12,18 3,2 6,3 10,3 4,0 12,-2 12,-9 0,-3 -3,-6 -5,-6z"/>
   <path class="fil4" d="M328 277c3,1 6,2 8,3 -2,-1 -5,-2 -8,-3zm-22 9c0,-1 -1,-1 -1,-1 -2,-2 -2,-6 0,-6 3,-1 5,-2 8,-2 -3,-1 -5,-3 -7,-5 -2,-2 -1,-6 2,-6 1,0 1,0 2,0 -2,-2 -4,-4 -5,-6 -1,-2 1,-5 3,-5 -1,-1 -2,-1 -3,-2 -3,-2 -2,-6 2,-6 0,0 1,0 2,0 -1,-2 -2,-4 -2,-6 0,-2 1,-4 3,-4 0,0 1,0 2,0 -2,-1 -1,-3 0,-4 4,-1 9,-2 13,-1 -1,-2 0,-3 1,-4 8,-4 17,-3 25,-1 2,1 1,5 -1,5 -6,-2 -12,-2 -17,-1 6,3 13,5 19,7 3,1 1,5 -2,5 -5,-1 -11,-3 -16,-4 -4,-1 -8,-2 -12,-2 9,4 20,7 30,11 3,1 1,6 -2,5 0,0 0,0 -1,0l0 0c0,0 0,0 0,0 -12,-3 -23,-8 -36,-10 1,2 3,3 4,4 13,2 25,9 37,13 1,0 2,0 2,0 4,2 3,8 -1,7 -2,0 -3,-1 -5,-1 3,1 6,2 9,4 4,2 2,8 -3,7 -10,-4 -21,-8 -31,-12 -3,-1 -5,-2 -8,-2 4,3 10,5 15,7 8,3 16,6 23,10 4,3 2,7 -1,7 3,3 0,8 -4,7 -7,-1 -13,-4 -20,-6 -3,-1 -7,-3 -11,-3 7,3 14,7 22,9 4,1 2,8 -2,7 -7,-1 -13,-2 -19,-4 1,1 2,2 3,3 3,2 0,7 -3,6 -3,-1 -6,-2 -8,-3 -3,-1 -3,-3 -2,-5 -2,-2 -4,-4 -6,-6 -2,-2 -2,-7 2,-6z"/>
   <path class="fil3" d="M353 218c12,-1 23,-3 34,-9 5,-3 10,-8 14,-13 3,-3 5,-7 8,-11 3,-4 6,-7 7,-11 0,-4 -3,-6 -5,-6 -7,1 -12,15 -16,21 -3,5 -7,10 -11,13 -10,7 -21,8 -31,12 -2,0 -2,5 0,4z"/>
   <path class="fil3" d="M216 255c1,-1 3,-2 4,-2 1,0 2,0 4,1 1,0 1,0 2,1 0,0 1,0 1,-1 1,1 2,1 3,1 1,0 2,1 4,1 3,0 6,1 10,1 4,0 9,0 14,-1 6,-1 11,-5 15,-8 5,-6 10,-11 15,-17 2,-2 6,0 5,2 -4,7 -8,13 -14,19 -4,4 -9,8 -16,11 -13,5 -33,3 -46,0 -3,-1 -4,-5 -1,-8z"/>
   <path class="fil3" d="M489 99c13,-7 27,-13 40,-20 20,-10 39,-21 58,-32 -6,1 -12,2 -18,4 -11,3 -23,6 -35,9 -11,3 -22,6 -34,9 -5,1 -11,3 -17,4 -6,2 -11,3 -17,5 0,3 -1,6 -1,8 -1,5 -3,9 -5,14 -1,4 -3,8 -5,13 -1,1 -1,2 -2,3 12,-7 24,-12 36,-17zm7 17c15,-13 31,-24 47,-35 3,-2 6,-4 9,-6 -6,3 -12,7 -19,10 -12,6 -26,13 -39,19 -1,1 -3,1 -4,2 2,3 4,7 6,10zm-59 -70c1,1 3,3 4,5 3,2 5,4 7,7 5,5 10,10 16,14 11,-3 23,-5 34,-8 12,-3 23,-6 35,-9 11,-3 22,-6 34,-9 7,-2 14,-4 21,-5 -51,-1 -101,5 -151,5zm12 70c1,-5 2,-9 4,-14 1,-4 3,-9 5,-13 1,-3 1,-7 3,-11 -1,0 -1,0 -1,0 -4,-6 -9,-11 -14,-17 -2,-2 -4,-5 -7,-7 -2,-3 -4,-5 -6,-8 0,0 0,0 0,0 -1,0 -1,-2 0,-2 59,-4 118,-12 176,-10 4,1 5,6 2,7 -9,6 -17,11 -26,16 -4,4 -9,7 -13,10 -8,5 -16,11 -24,17 -8,6 -16,11 -25,18 -8,6 -16,13 -23,20 -2,2 -5,0 -6,-2 -4,-3 -7,-7 -9,-10 -1,0 -1,-1 -1,-1 -11,5 -22,9 -33,12 0,1 -1,2 -2,2 -3,0 -1,-6 0,-7z"/>
  </g>
 </g>
</svg>
